<?xml version="1.0" encoding="utf-8"?>
<!-- Generator: Adobe Illustrator 16.0.0, SVG Export Plug-In . SVG Version: 6.00 Build 0)  -->
<!DOCTYPE svg PUBLIC "-//W3C//DTD SVG 1.1//EN" "http://www.w3.org/Graphics/SVG/1.1/DTD/svg11.dtd">
<svg version="1.1" xmlns="http://www.w3.org/2000/svg" xmlns:xlink="http://www.w3.org/1999/xlink" x="0px" y="0px"
	 width="48.666px" height="847.333px" viewBox="89.334 -1.332 48.666 847.333"
	 enable-background="new 89.334 -1.332 48.666 847.333" xml:space="preserve">
<g id="bg">
	<rect x="69.094" y="-21.196" fill="#5D5D5D" width="181.491" height="1217.196"/>
</g>
<g id="Layer_1">
	<rect x="182" y="473" display="none" fill="#444444" width="471.999" height="436"/>
	<g>
		<polygon fill="#333333" points="95.199,8.608 92.779,4.417 90.359,0.224 95.199,0.224 100.039,0.224 97.619,4.417 		"/>
	</g>
	<path fill="#333333" d="M-583,1315.707"/>
	<g>
		<g>
			<g>
				<path fill="#333333" d="M-440-1586h-221v-46h221V-1586z M-660-1587h219v-44h-219V-1587z"/>
			</g>
			<rect x="-658.822" y="-1641.5" fill="none" width="218.344" height="27"/>
		</g>
		<g>
			<rect x="-666.426" y="-1609" fill="none" width="125.149" height="14.5"/>
			
				<text transform="matrix(1 0 0 1 -652.8535 -1600.4082)" display="none" fill="#4E4E4E" enable-background="new    " font-family="'Arial-BoldMT'" font-size="12">Content Manager</text>
			<rect x="-660.5" y="-1616.898" fill="none" width="220.021" height="21.797"/>
			<text transform="matrix(1 0 0 1 -588.4873 -1599.7148)" fill="#333333" font-family="'Arial-BoldMT'" font-size="24">LOGIN</text>
		</g>
	</g>
	<g transform="matrix(0.24 0 0 0.24 -1421.1055 -1838.4746)">
		<g>
			<rect x="9.336" y="166.17" fill="#333333" width="6.171" height="3.166"/>
			<rect x="0" y="166.17" fill="#333333" width="6.173" height="3.166"/>
			<rect x="6.173" y="169.334" fill="#333333" width="3.164" height="6.171"/>
			<rect x="6.173" y="159.998" fill="#333333" width="3.164" height="6.173"/>
			<rect x="6.173" y="166.17" fill="#333333" width="3.164" height="3.166"/>
		</g>
	</g>
	<g>
		<g>
			<g>
				<g>
					<rect x="90.156" y="39.947" fill="#1A1A1A" width="14" height="7"/>
					<path fill="#1A1A1A" d="M96.156,42.388c0,0.063-0.112-0.441-0.153-0.441h-5.117c-0.043,0,0.271,0.504,0.271,0.441v-3.766
						c0-0.064-0.14-0.116-0.097-0.116l5.066,0.521c0.043,0,0.029,0.052,0.029,0.116L96.156,42.388L96.156,42.388z"/>
				</g>
			</g>
		</g>
	</g>
	<g>
		<g>
			<g>
				<rect x="90.941" y="62.302" fill="#1A1A1A" width="11" height="13"/>
				<line fill="none" stroke="#FFFFFF" stroke-miterlimit="10" x1="92.941" y1="64.802" x2="99.941" y2="64.802"/>
				<line fill="none" stroke="#FFFFFF" stroke-miterlimit="10" x1="92.941" y1="66.802" x2="99.941" y2="66.802"/>
				<line fill="none" stroke="#FFFFFF" stroke-miterlimit="10" x1="92.941" y1="68.802" x2="99.941" y2="68.802"/>
				<line fill="none" stroke="#FFFFFF" stroke-miterlimit="10" x1="92.941" y1="70.802" x2="99.941" y2="70.802"/>
				<line fill="none" stroke="#FFFFFF" stroke-miterlimit="10" x1="92.941" y1="72.802" x2="99.941" y2="72.802"/>
			</g>
		</g>
	</g>
	<g>
		<g>
			<circle fill="#242424" cx="96.441" cy="51.074" r="3.106"/>
			<circle fill="#FFFFFF" cx="96.441" cy="51.102" r="2.337"/>
			<rect x="90.989" y="51.016" fill="#242424" width="11" height="10"/>
			<rect x="92.989" y="53.016" fill="#FFFFFF" width="7" height="1"/>
		</g>
	</g>
	<g>
		<g>
			<rect x="91.006" y="313.135" fill="#333333" width="11" height="14"/>
			<path fill="#E6E6E5" d="M93.006,325.861c0,0.078-0.094,0.273-0.145,0.273H92.31c-0.05,0-0.305-0.195-0.305-0.273v-11.449
				c0-0.08,0.255-0.277,0.307-0.277h0.551c0.049,0,0.143,0.197,0.143,0.277V325.861z"/>
			<path fill="#E6E6E5" d="M95.006,325.861c0,0.078-0.111,0.273-0.163,0.273h-0.551c-0.05,0-0.286-0.195-0.286-0.273v-11.449
				c0-0.08,0.236-0.277,0.286-0.277h0.551c0.052,0,0.163,0.197,0.163,0.277V325.861z"/>
			<path fill="#E6E6E5" d="M97.006,325.861c0,0.078-0.132,0.273-0.184,0.273h-0.549c-0.051,0-0.268-0.195-0.268-0.273v-11.449
				c0-0.08,0.217-0.277,0.268-0.277h0.551c0.05,0,0.182,0.197,0.182,0.277V325.861z"/>
			<path fill="#E6E6E5" d="M99.006,325.861c0,0.078-0.15,0.273-0.202,0.273h-0.55c-0.051,0-0.248-0.195-0.248-0.273v-11.449
				c0-0.08,0.197-0.277,0.248-0.277h0.55c0.052,0,0.202,0.197,0.202,0.277V325.861z"/>
			<path fill="#E6E6E5" d="M101.006,325.861c0,0.078-0.17,0.273-0.221,0.273h-0.551c-0.051,0-0.229-0.195-0.229-0.273v-11.449
				c0-0.08,0.178-0.277,0.229-0.277h0.551c0.051,0,0.221,0.197,0.221,0.277V325.861z"/>
			<path fill="#333333" d="M103.006,312.328c0,0.057-0.066-0.193-0.148-0.193H90.312c-0.08,0-0.307,0.25-0.307,0.193v-1.258
				c0-0.059,0.227,0.064,0.307,0.064h12.545c0.082,0,0.148-0.123,0.148-0.064V312.328z"/>
			<path fill="#333333" d="M99.006,311.41c0,0.092,0.084-0.275,0.052-0.275h-5.019c-0.032,0-0.033,0.367-0.033,0.275v-1.959
				c0-0.09,0.001-0.316,0.033-0.316h5.019c0.032,0-0.052,0.227-0.052,0.316V311.41z"/>
		</g>
	</g>
	<g>
		<g>
			<g>
				<path fill="#333333" d="M100.809,383.585v-4.649h-4.688v-3.211h4.688v-4.65h3.125v4.65h4.701v3.211h-4.701v4.649H100.809z"/>
			</g>
			<circle fill="none" stroke="#333333" stroke-width="3" stroke-miterlimit="10" cx="102.385" cy="376.834" r="10.333"/>
		</g>
	</g>
	<g>
		<g>
			<rect x="97.246" y="572.922" fill="#333333" width="20" height="4"/>
			<polygon fill="#333333" points="98.572,579.657 90.404,574.69 98.787,570.095 			"/>
		</g>
	</g>
	<g>
		<g>
			<path fill="#818181" d="M96.975,143.475v-3.223h-3.248v-2.225h3.248v-3.223h2.166v3.223h3.256v2.225h-3.256v3.223H96.975z"/>
		</g>
		<circle fill="none" stroke="#818181" stroke-width="1.5" stroke-miterlimit="10" cx="98.066" cy="138.797" r="7.16"/>
	</g>
	<g>
		<g>
			<path fill="#818181" d="M100.368,125.997l-2.23-2.327l-2.346,2.248l-1.539-1.606l2.347-2.247l-2.23-2.327l1.563-1.498l2.23,2.327
				l2.352-2.254l1.539,1.606l-2.353,2.253l2.229,2.327L100.368,125.997z"/>
		</g>
		<circle fill="none" stroke="#818181" stroke-width="1.5" stroke-miterlimit="10" cx="98.157" cy="121.772" r="7.16"/>
	</g>
	<g>
		<g>
			<circle fill="none" stroke="#818181" stroke-width="1.5" stroke-miterlimit="10" cx="97.764" cy="155.65" r="7.16"/>
		</g>
		<g>
			<circle fill="#818181" cx="97.674" cy="155.741" r="4.936"/>
		</g>
	</g>
	<g>
		<rect x="91.49" y="446.226" fill="#FFFFFF" stroke="#B4B4B4" stroke-miterlimit="10" width="16" height="16"/>
		<g>
			<rect x="100.372" y="453.008" fill="#8DC641" width="4.272" height="2.191"/>
			<rect x="93.904" y="453.01" fill="#8DC641" width="4.275" height="2.19"/>
			<rect x="98.18" y="455.199" fill="#8DC641" width="2.191" height="4.275"/>
			<rect x="98.18" y="448.732" fill="#8DC641" width="2.191" height="4.275"/>
			<rect x="98.18" y="453.008" fill="#8DC641" width="2.191" height="2.192"/>
			<rect x="98.18" y="453.008" fill="#8DC641" width="2.191" height="2.192"/>
		</g>
	</g>
	<g>
		<path fill="#989898" d="M107.29,256.177c0.537-0.537,0.522-1.426-0.033-1.982l-4.84-4.838c-0.556-0.557-1.443-0.572-1.981-0.033
			l-1.481,1.482l6.854,6.855L107.29,256.177z"/>
		
			<rect x="101.821" y="249.26" transform="matrix(0.7071 -0.7071 0.7071 0.7071 -150.0867 146.7318)" fill="#989898" width="0.514" height="10.553"/>
		<path fill="#989898" d="M90.479,266.133c0.107-0.014,1.826-0.215,3.613-0.428l-3.184-3.185
			C90.696,264.307,90.493,266.027,90.479,266.133z"/>
		<path fill="#989898" d="M93.671,260.523l6.894-6.893l-2.165-2.166c-0.117,0.117-6.635,6.635-6.895,6.896
			C92.628,258.484,93.546,259.402,93.671,260.523z"/>
		<path fill="#989898" d="M95.962,262.816l6.895-6.895l-2.164-2.165c-0.668,0.669-6.646,6.647-6.895,6.896
			c0.545,0.06,1.059,0.307,1.457,0.705C95.657,261.757,95.902,262.27,95.962,262.816z"/>
		<path fill="#989898" d="M95.927,263.107l-0.119,0.012l-0.007-0.104c-0.015-0.573-0.25-1.119-0.666-1.535
			c-0.415-0.416-0.962-0.651-1.536-0.666l-0.088,0.005l-0.004-0.13c-0.047-1.144-0.984-2.095-2.124-2.163
			c-0.044,0.377-0.247,2.079-0.448,3.78l3.374,3.375c1.701-0.202,3.405-0.406,3.78-0.448c-0.031-0.547-0.266-1.063-0.662-1.46
			C97.02,263.363,96.489,263.128,95.927,263.107z"/>
		<path fill="#989898" d="M96.091,262.943c0.546,0.062,1.059,0.307,1.457,0.707c0.4,0.399,0.646,0.912,0.705,1.459l6.896-6.895
			l-2.165-2.166L96.091,262.943z"/>
	</g>
	<path fill="#333333" d="M95.156,76.302l-4.303,7.453h2.211c0,0,0,1.643,0,3.229c0,1.588-2.082,3.382-2.082,3.382
		s4.896-0.489,5.713-2.284c0.815-1.796,0.555-4.326,0.555-4.326h2.21L95.156,76.302z"/>
	<polygon fill="#636467" points="95.203,20.037 92.783,15.846 90.363,11.653 95.203,11.653 100.042,11.653 97.621,15.846 	"/>
	<g>
		<rect x="108.847" y="549.459" fill="#6D9E40" width="11.74" height="6.02"/>
		<rect x="91.085" y="549.46" fill="#6D9E40" width="11.739" height="6.02"/>
		<rect x="102.824" y="555.477" fill="#6D9E40" width="6.021" height="11.741"/>
		<rect x="102.824" y="537.719" fill="#6D9E40" width="6.021" height="11.74"/>
		<rect x="102.824" y="549.458" fill="#6D9E40" width="6.021" height="6.021"/>
	</g>
	<g>
		
			<rect x="95.424" y="102.446" transform="matrix(0.7069 -0.7073 0.7073 0.7069 -44.6761 99.7831)" fill="#989898" width="5.285" height="2.709"/>
		
			<rect x="91.057" y="106.813" transform="matrix(-0.7071 -0.7071 0.7071 -0.7071 80.3602 252.1981)" fill="#989898" width="2.711" height="5.285"/>
		
			<rect x="96.711" y="106.811" transform="matrix(-0.7075 0.7067 -0.7067 -0.7075 244.8017 117.5823)" fill="#989898" width="2.711" height="5.287"/>
		
			<rect x="91.056" y="101.157" transform="matrix(0.7071 -0.7071 0.7071 0.7071 -46.3311 95.7468)" fill="#989898" width="2.711" height="5.285"/>
		
			<rect x="93.884" y="105.273" transform="matrix(-0.7069 -0.7073 0.7073 -0.7069 87.1508 249.3672)" fill="#989898" width="2.712" height="2.71"/>
		
			<rect x="93.884" y="105.273" transform="matrix(-0.7069 -0.7073 0.7073 -0.7069 87.1508 249.3672)" fill="#989898" width="2.712" height="2.71"/>
	</g>
	<g>
		<path fill="#989898" d="M101.801,28.376c0.365-0.364,0.355-0.966-0.021-1.343L98.5,23.755c-0.377-0.377-0.979-0.387-1.344-0.021
			l-1.004,1.003l4.645,4.645L101.801,28.376z"/>
		
			<rect x="98.094" y="23.691" transform="matrix(0.7071 -0.7071 0.7071 0.7071 9.5029 77.4716)" fill="#989898" width="0.348" height="7.147"/>
		<path fill="#989898" d="M90.412,35.12c0.071-0.009,1.235-0.146,2.446-0.29l-2.155-2.156C90.558,33.884,90.42,35.05,90.412,35.12z"
			/>
		<path fill="#989898" d="M92.574,31.321l4.67-4.671l-1.467-1.468c-0.08,0.08-4.496,4.496-4.673,4.672
			C91.867,29.939,92.488,30.559,92.574,31.321z"/>
		<path fill="#989898" d="M94.125,32.874l4.672-4.671l-1.467-1.467c-0.453,0.453-4.502,4.504-4.672,4.672
			c0.371,0.041,0.719,0.207,0.988,0.479C93.918,32.157,94.086,32.504,94.125,32.874z"/>
		<path fill="#989898" d="M94.1,33.071l-0.08,0.008l-0.005-0.071c-0.009-0.389-0.169-0.759-0.451-1.04
			c-0.281-0.281-0.65-0.442-1.04-0.451l-0.062,0.002l-0.002-0.088c-0.029-0.774-0.666-1.418-1.438-1.465
			c-0.028,0.254-0.167,1.409-0.304,2.562l2.285,2.286c1.152-0.137,2.308-0.274,2.563-0.303c-0.021-0.371-0.18-0.721-0.447-0.99
			C94.843,33.244,94.481,33.086,94.1,33.071z"/>
		<path fill="#989898" d="M94.213,32.96c0.369,0.041,0.717,0.207,0.986,0.479c0.271,0.271,0.438,0.618,0.479,0.988l4.671-4.671
			l-1.467-1.467L94.213,32.96z"/>
	</g>
	<g>
		<rect x="98.893" y="422.371" fill="#8DC641" width="5.477" height="2.809"/>
		<rect x="90.61" y="422.372" fill="#8DC641" width="5.476" height="2.808"/>
		<rect x="96.086" y="425.18" fill="#8DC641" width="2.808" height="5.477"/>
		<rect x="96.086" y="416.896" fill="#8DC641" width="2.808" height="5.476"/>
		<rect x="96.086" y="422.371" fill="#8DC641" width="2.808" height="2.809"/>
	</g>
	<g>
		<polygon fill="#818181" points="93.514,300.248 97.885,304.937 108.174,295.328 103.822,290.59 		"/>
		<path fill="#818181" d="M92.166,301.908c0.072-0.266,0.289-0.318,0.479-0.119l3.754,3.936c0.189,0.198,0.123,0.397-0.148,0.442
			l-5.022,0.824c-0.271,0.045-0.433-0.136-0.358-0.4L92.166,301.908z"/>
		<path fill="#818181" d="M104.385,290.195l4.334,4.643l1.057-1.008c0,0,0.557-0.86,0.07-1.469
			c-0.485-0.609-2.617-2.941-2.617-2.941s-0.547-0.463-1.301-0.417C105.537,289.025,104.385,290.195,104.385,290.195z"/>
	</g>
	<g>
		<polygon fill="#1A1A1A" points="94.386,598.002 100.351,604.4 114.386,591.291 108.451,584.826 		"/>
		<path fill="#1A1A1A" d="M92.594,600.092c0.073-0.266,0.289-0.318,0.479-0.12l5.373,5.635c0.189,0.198,0.123,0.397-0.147,0.442
			l-7.213,1.184c-0.271,0.045-0.433-0.136-0.358-0.4L92.594,600.092z"/>
		<path fill="#1A1A1A" d="M109.218,584.289l5.912,6.334l1.44-1.375c0,0,0.761-1.175,0.099-2.004
			c-0.664-0.832-3.571-4.015-3.571-4.015s-0.746-0.631-1.773-0.567C110.79,582.692,109.218,584.289,109.218,584.289z"/>
	</g>
	<g>
		<polyline fill="none" stroke="#8CC541" stroke-width="3" stroke-miterlimit="10" points="91.49,437.137 94.85,441.616 
			105.49,433.776 		"/>
	</g>
	<rect x="90.506" y="410.341" fill="#8DC641" width="16" height="4"/>
	<polygon display="none" fill="#242424" points="30,671.775 14.094,662.962 30,654.146 	"/>
	<g>
		<g>
			<path fill="#FFFFFF" d="M97.413,165.983c0.188,0.02,0.373,0.039,0.559,0.052c0.095,0.006,0.132,0.04,0.146,0.138
				c0.082,0.554,0.171,1.107,0.263,1.66c0.006,0.039,0.059,0.09,0.1,0.102c0.402,0.109,0.789,0.265,1.152,0.468
				c0.067,0.039,0.115,0.036,0.178-0.009c0.467-0.324,0.938-0.643,1.402-0.969c0.086-0.061,0.141-0.063,0.217,0.01
				c0.289,0.273,0.588,0.535,0.873,0.813c0.129,0.123,0.236,0.268,0.361,0.411c-0.027,0.04-0.054,0.076-0.078,0.112
				c-0.322,0.441-0.642,0.885-0.966,1.32c-0.051,0.068-0.049,0.115-0.006,0.184c0.229,0.363,0.41,0.75,0.533,1.163
				c0.022,0.073,0.058,0.104,0.135,0.118c0.56,0.1,1.117,0.202,1.677,0.302c0.08,0.016,0.11,0.044,0.123,0.134
				c0.075,0.535,0.114,1.074,0.065,1.616c-0.002,0.03-0.004,0.063-0.009,0.104c-0.264,0.042-0.526,0.085-0.791,0.128
				c-0.327,0.051-0.653,0.105-0.979,0.154c-0.059,0.01-0.084,0.027-0.098,0.092c-0.101,0.486-0.267,0.949-0.5,1.389
				c-0.019,0.034,0,0.104,0.024,0.143c0.31,0.453,0.621,0.902,0.935,1.354c0.032,0.049,0.065,0.097,0.104,0.15
				c-0.354,0.482-0.761,0.916-1.228,1.305c-0.037-0.025-0.074-0.051-0.111-0.078c-0.436-0.314-0.868-0.631-1.303-0.949
				c-0.067-0.052-0.117-0.059-0.192-0.008c-0.427,0.285-0.892,0.493-1.386,0.631c-0.073,0.021-0.106,0.059-0.121,0.133
				c-0.1,0.559-0.204,1.115-0.309,1.676c-0.015,0.069-0.023,0.126-0.121,0.135c-0.541,0.05-1.08,0.063-1.621,0.022
				c-0.013-0.002-0.022-0.007-0.045-0.013c-0.05-0.307-0.101-0.617-0.147-0.928c-0.043-0.275-0.091-0.553-0.132-0.829
				c-0.01-0.062-0.028-0.092-0.098-0.104c-0.527-0.115-1.027-0.307-1.49-0.589c-0.071-0.044-0.121-0.034-0.187,0.012
				c-0.455,0.313-0.912,0.628-1.366,0.938c-0.035,0.024-0.07,0.048-0.107,0.074c-0.469-0.363-0.881-0.772-1.252-1.24
				c0.023-0.032,0.048-0.065,0.07-0.102c0.325-0.446,0.649-0.896,0.979-1.339c0.045-0.062,0.047-0.103,0.008-0.164
				c-0.275-0.447-0.476-0.926-0.592-1.438c-0.021-0.08-0.058-0.109-0.14-0.125c-0.553-0.096-1.103-0.198-1.653-0.294
				c-0.086-0.015-0.107-0.051-0.113-0.126c-0.006-0.106-0.021-0.217-0.031-0.324c0-0.239,0-0.48,0-0.725
				c0.018-0.177,0.039-0.354,0.051-0.532c0.006-0.079,0.033-0.109,0.117-0.124c0.551-0.082,1.1-0.172,1.648-0.256
				c0.076-0.012,0.121-0.039,0.143-0.123c0.119-0.47,0.309-0.912,0.564-1.325c0.039-0.063,0.032-0.104-0.009-0.165
				c-0.317-0.459-0.631-0.918-0.944-1.377c-0.025-0.034-0.045-0.068-0.066-0.103c0.359-0.456,0.953-1.037,1.303-1.271
				c0.033,0.022,0.068,0.046,0.104,0.071c0.451,0.324,0.904,0.649,1.355,0.978c0.053,0.038,0.092,0.051,0.154,0.015
				c0.389-0.229,0.803-0.396,1.238-0.506c0.063-0.019,0.094-0.047,0.104-0.117c0.039-0.24,0.086-0.481,0.132-0.724
				c0.065-0.354,0.131-0.709,0.194-1.056c0.168-0.022,0.324-0.047,0.479-0.069C96.946,165.983,97.181,165.983,97.413,165.983z
				 M97.099,175.436c1.352,0.001,2.455-1.096,2.449-2.434c-0.008-1.359-1.109-2.44-2.494-2.445
				c-1.295-0.004-2.389,1.121-2.387,2.452C94.673,174.359,95.751,175.436,97.099,175.436z"/>
		</g>
	</g>
	<g>
		<g>
			<path fill="#FDFEFF" d="M98.904,182.43c0.504,0.15,0.963,0.357,1.381,0.636c2.141,1.419,3.217,3.41,2.959,5.979
				c-0.256,2.559-1.652,4.367-4.051,5.295c-2.779,1.076-5.781,0.102-7.49-2.34c-1.861-2.658-1.301-6.453,1.246-8.475
				c0.568-0.447,1.186-0.801,1.865-1.049c0.129-0.047,0.178-0.045,0.176,0.115c-0.01,0.645-0.012,1.289,0,1.934
				c0.004,0.162-0.094,0.213-0.199,0.276c-0.873,0.521-1.488,1.255-1.844,2.212c-0.566,1.539-0.148,3.361,1.063,4.479
				c1.213,1.117,2.642,1.475,4.209,0.981c1.56-0.49,2.556-1.586,2.886-3.188c0.334-1.608-0.181-2.972-1.408-4.062
				c-0.205-0.18-0.431-0.33-0.666-0.465c-0.069-0.04-0.131-0.08-0.127-0.182C98.904,183.871,98.904,183.162,98.904,182.43z"/>
			<path fill="#FDFEFF" d="M98.021,184.826c0,1.187-0.006,2.372,0.004,3.559c0,0.164-0.039,0.209-0.205,0.206
				c-0.584-0.011-1.172-0.007-1.758-0.002c-0.131,0.001-0.195-0.018-0.195-0.174c0.008-2.396,0.008-4.788,0.004-7.185
				c0-0.136,0.041-0.176,0.174-0.174c0.6,0.006,1.199,0.008,1.801-0.002c0.15-0.002,0.181,0.054,0.179,0.189
				C98.019,182.438,98.021,183.633,98.021,184.826z"/>
		</g>
	</g>
	<g>
		<path fill="#8DC641" d="M95.834,230.298v-5.725h-5.77v-3.951h5.77v-5.725h3.849v5.725h5.784v3.951h-5.784v5.725H95.834z"/>
	</g>
	<g>
		<path fill="#8DC641" d="M96.946,196.071l-5.467,9.469h2.809c0,0,0,2.086,0,4.102c0,2.018-2.643,4.297-2.643,4.297
			s6.219-0.622,7.256-2.9c1.037-2.281,0.705-5.496,0.705-5.496h2.807L96.946,196.071z"/>
	</g>
	<g>
		<path fill="#8DC641" d="M90.064,240.133c0.584,0.601,1.139,1.17,1.695,1.74c0.967-0.967,1.906-1.906,2.83-2.83
			c1.222,1.223,2.426,2.426,3.643,3.642c-0.92,0.92-1.859,1.857-2.813,2.806c0.578,0.566,1.146,1.127,1.713,1.684
			c-0.01,0.016-0.018,0.028-0.025,0.044c-2.343,0-4.688,0-7.043,0C90.064,244.878,90.064,242.532,90.064,240.133z"/>
		<path fill="#8DC641" d="M101.588,239.34c-1.222-1.222-2.418-2.419-3.615-3.618c0.915-0.916,1.839-1.84,2.785-2.784
			c-0.604-0.584-1.174-1.14-1.785-1.731c2.406,0,4.751,0,7.107,0c0,2.34,0,4.685,0,7.022c-0.555-0.563-1.115-1.13-1.68-1.703
			C103.434,237.492,102.514,238.412,101.588,239.34z"/>
	</g>
	<g>
		<g>
			<rect x="91.244" y="517.405" fill="#F3F3F3" width="27" height="17"/>
			<rect x="93.244" y="519.405" fill="#AAD037" width="21" height="13"/>
		</g>
		<g>
			
				<rect x="97.656" y="517.097" transform="matrix(0.9889 0.1489 -0.1489 0.9889 79.4106 -10.426)" fill="#F3F3F3" width="23.362" height="16.091"/>
			
				<rect x="99.438" y="519.013" transform="matrix(0.9889 0.1488 -0.1488 0.9889 79.3537 -10.4246)" fill="#AAD037" width="19.821" height="12.26"/>
		</g>
	</g>
	<g>
		<g>
			<g>
			</g>
		</g>
	</g>
	<g>
		<g>
			
				<rect x="101.696" y="468.419" transform="matrix(0.7072 -0.7071 0.7071 0.7072 -301.7502 213.1842)" fill="#AAD037" width="9.583" height="4.91"/>
			
				<rect x="93.784" y="476.331" transform="matrix(-0.707 -0.7072 0.7072 -0.707 -175.9706 889.34)" fill="#AAD037" width="4.91" height="9.582"/>
			
				<rect x="104.048" y="476.344" transform="matrix(-0.7071 0.7071 -0.7071 -0.7071 522.0273 746.0394)" fill="#AAD037" width="4.911" height="9.583"/>
			
				<rect x="93.783" y="466.083" transform="matrix(0.7071 -0.7071 0.7071 0.7071 -304.7706 205.9665)" fill="#AAD037" width="4.911" height="9.582"/>
			
				<rect x="98.907" y="473.542" transform="matrix(-0.7071 -0.7071 0.7071 -0.7071 -163.5452 884.2532)" fill="#AAD037" width="4.911" height="4.911"/>
			
				<rect x="98.907" y="473.542" transform="matrix(-0.7071 -0.7071 0.7071 -0.7071 -163.5452 884.2532)" fill="#AAD037" width="4.911" height="4.911"/>
		</g>
	</g>
	<g>
		<g>
			<g>
				<path fill="#AAD037" d="M113.267,497.885c0.661-0.661,0.646-1.752-0.039-2.436l-5.942-5.943c-0.681-0.684-1.772-0.7-2.433-0.039
					l-1.824,1.82l8.418,8.418L113.267,497.885z"/>
				
					<rect x="106.025" y="489.943" transform="matrix(0.7087 -0.7056 0.7056 0.7087 -319.2723 219.6605)" fill="#AAD037" width="0.631" height="12.958"/>
				<path fill="#AAD037" d="M90.988,511.744c0.132-0.018,2.244-0.266,4.437-0.527l-3.907-3.906
					C91.255,509.504,91.007,511.613,90.988,511.744z"/>
				<path fill="#AAD037" d="M95.855,503.644l7.98-7.98l-2.535-2.519c-0.139,0.138-7.926,7.925-8.236,8.237
					C94.404,501.532,95.708,502.306,95.855,503.644z"/>
				<path fill="#AAD037" d="M98.738,506.517l7.892-7.962l-2.312-2.31c-0.793,0.793-7.594,7.518-7.887,7.813
					c0.646,0.067,0.988,0.479,1.463,0.95C98.37,505.486,98.667,505.871,98.738,506.517z"/>
				<path fill="#AAD037" d="M98.101,507.607l-0.148,0.014l-0.008-0.127c-0.019-0.705-0.31-1.377-0.818-1.887
					s-1.178-0.801-1.887-0.818l-0.109,0.008l-0.004-0.16c-0.057-1.403-1.207-2.571-2.609-2.656
					c-0.053,0.464-0.301,2.555-0.547,4.646l4.141,4.141c2.091-0.246,4.183-0.494,4.646-0.549c-0.039-0.672-0.325-1.305-0.813-1.791
					C99.441,507.922,98.79,507.635,98.101,507.607z"/>
				<path fill="#AAD037" d="M99.169,506.916c0.662,0.071,1.051,0.407,1.531,0.887c0.481,0.481,0.713,1.076,0.784,1.736l8.181-8.181
					l-2.435-2.435L99.169,506.916z"/>
			</g>
		</g>
	</g>
	<g>
		<g>
			<path fill="#FFFFFF" d="M93.407,772.313c1.008-1.428,2.301-2.333,4.047-2.503c1.488-0.146,2.863,0.28,4.17,0.937
				c1.837,0.926,3.516,2.08,4.811,3.699c1.393,1.742,1.969,3.673,1.086,5.852c-0.148,0.367-0.355,0.715-0.557,1.113
				C102.438,778.373,97.944,775.358,93.407,772.313z"/>
			<path fill="#FFFFFF" d="M106.062,762.811c1.191,1.334,2.273,2.313,4.863,3.264c-0.715,1.143-1.429,2.271-2.136,3.404
				c-0.698,1.124-1.395,2.251-2.125,3.429c-1.481-1.618-3.231-2.829-5.321-3.574C102.919,767.157,104.479,764.998,106.062,762.811z"
				/>
			<path fill="#FFFFFF" d="M115.04,763.707c-0.574,0.863-1.346,1.332-2.323,1.136c-0.854-0.175-1.71-0.46-2.489-0.851
				c-1.283-0.639-2.441-1.482-3.314-2.648c-0.83-1.106-0.883-2.137-0.182-3.211C109.487,759.982,112.243,761.831,115.04,763.707z"/>
		</g>
		<path fill="#FFFFFF" d="M99.126,778.204c-0.456-0.307-1.053-0.166-1.323,0.313l-6.365,11.243
			c-0.271,0.479-0.215,0.517,0.126,0.085l7.992-10.15c0.341-0.432,0.245-1.036-0.211-1.343L99.126,778.204z"/>
	</g>
	<g>
		<path fill="#333333" d="M107.806,693.879c-4.35-0.057-8.696-0.112-13.044-0.17c-0.529-0.008-1.06-0.028-1.589-0.042
			c-0.557-0.017-0.797-0.226-0.86-0.786c-0.215-1.891-0.424-3.783-0.637-5.674c-0.345-3.068-0.688-6.138-1.031-9.205
			c-0.11-0.988-0.222-1.979-0.323-2.968c-0.061-0.584,0.096-0.757,0.692-0.747c3.63,0.048,7.259,0.102,10.889,0.15
			c2.849,0.039,5.696,0.076,8.546,0.115c0.971,0.014,1.94,0.055,2.91,0.029c0.452-0.014,0.766,0.202,1.077,0.453
			c0.239,0.189,0.49,0.26,0.798,0.262c1.827,0.014,3.654,0.053,5.48,0.071c0.294,0.003,0.431,0.099,0.464,0.403
			c0.375,3.408,0.762,6.813,1.146,10.222c0.274,2.44,0.553,4.883,0.825,7.323c0.063,0.578-0.144,0.793-0.711,0.783
			c-2.836-0.047-5.671-0.104-8.508-0.133c-2.04-0.02-4.082-0.004-6.124-0.004C107.806,693.936,107.806,693.908,107.806,693.879z"/>
		<path fill="#333333" d="M124.943,692.364c-0.099-0.864-0.196-1.729-0.295-2.597c-0.399-3.555-0.803-7.107-1.2-10.666
			c-0.152-1.348-0.305-2.695-0.445-4.047c-0.08-0.771-0.188-0.893-0.959-0.906c-1.852-0.031-3.701-0.072-5.553-0.075
			c-0.466-0.001-0.861-0.085-1.199-0.403c-0.318-0.301-0.699-0.376-1.127-0.379c-2.715-0.023-5.431-0.059-8.146-0.098
			c-4.551-0.063-9.103-0.137-13.651-0.205c-0.08-0.002-0.16-0.017-0.235-0.021c-0.161-0.945,0.224-1.405,1.142-1.393
			c2.797,0.035,5.592,0.07,8.391,0.109c5.537,0.078,11.076,0.156,16.613,0.244c0.293,0.005,0.418-0.102,0.494-0.365
			c0.282-0.977,0.287-0.979,1.325-0.971c1.837,0.021,3.675,0.048,5.512,0.074c0.489,0.008,0.597,0.133,0.569,0.626
			c-0.299,5.503-0.594,11.005-0.893,16.507c-0.084,1.518-0.177,3.036-0.265,4.555C124.997,692.358,124.969,692.36,124.943,692.364z"
			/>
	</g>
	<g>
	</g>
	<g>
		<g>
			<path fill="#CDCCCC" d="M104.479,629.003c-3.494-0.046-6.988-0.09-10.484-0.136c-0.426-0.006-0.85-0.023-1.274-0.034
				c-0.447-0.012-0.642-0.18-0.693-0.632c-0.172-1.521-0.34-3.041-0.512-4.561c-0.274-2.469-0.554-4.935-0.828-7.399
				c-0.09-0.795-0.179-1.591-0.26-2.386c-0.05-0.472,0.075-0.607,0.555-0.604c2.918,0.039,5.836,0.082,8.754,0.123
				c2.289,0.031,4.578,0.063,6.869,0.094c0.778,0.012,1.562,0.045,2.34,0.023c0.363-0.01,0.615,0.162,0.865,0.363
				c0.19,0.152,0.396,0.209,0.642,0.211c1.471,0.01,2.938,0.041,4.407,0.057c0.233,0.003,0.347,0.08,0.371,0.326
				c0.304,2.739,0.61,5.477,0.92,8.215c0.224,1.963,0.445,3.925,0.664,5.888c0.054,0.468-0.112,0.64-0.571,0.632
				c-2.277-0.037-4.56-0.083-6.839-0.106c-1.641-0.017-3.28-0.003-4.924-0.003C104.479,629.05,104.479,629.027,104.479,629.003z"/>
			<path fill="#CDCCCC" d="M118.257,627.785c-0.08-0.694-0.158-1.389-0.236-2.085c-0.324-2.857-0.646-5.716-0.967-8.573
				c-0.121-1.084-0.244-2.169-0.357-3.254c-0.064-0.619-0.152-0.717-0.771-0.728c-1.487-0.028-2.975-0.063-4.463-0.063
				c-0.373-0.001-0.69-0.066-0.965-0.324c-0.256-0.24-0.563-0.302-0.906-0.306c-2.182-0.018-4.362-0.045-6.545-0.076
				c-3.657-0.053-7.315-0.107-10.975-0.166c-0.064,0-0.129-0.012-0.189-0.018c-0.129-0.76,0.181-1.129,0.918-1.119
				c2.246,0.03,4.494,0.059,6.742,0.09c4.453,0.063,8.904,0.125,13.357,0.196c0.234,0.003,0.336-0.083,0.396-0.294
				c0.227-0.785,0.229-0.789,1.063-0.78c1.478,0.017,2.953,0.038,4.431,0.062c0.395,0.006,0.479,0.104,0.459,0.503
				c-0.24,4.423-0.478,8.847-0.72,13.269c-0.065,1.221-0.141,2.441-0.211,3.662C118.298,627.781,118.275,627.783,118.257,627.785z"
				/>
		</g>
		<g>
			<path fill="#FFFFFF" d="M99.425,620.122h2.619v-2.632h2.207v2.632h2.633v2.208h-2.633v2.618h-2.207v-2.618h-2.619V620.122z"/>
		</g>
	</g>
	<polygon fill="#242424" points="106.959,408.416 91.053,399.601 106.959,390.786 	"/>
	<g>
		<polygon fill="#333333" points="114.204,667.724 105.222,667.724 105.222,654.356 91.75,654.356 91.734,649.524 127.734,649.524 
			127.712,654.356 114.204,654.356 		"/>
		<polygon fill="#575554" points="105.264,631.325 114.246,631.325 114.246,644.692 127.718,644.692 127.734,649.524 
			91.734,649.524 91.756,644.692 105.264,644.692 		"/>
	</g>
	<g>
		<g>
			<path d="M93.569,737.08c1.008-1.428,2.301-2.333,4.047-2.503c1.488-0.146,2.863,0.28,4.17,0.937
				c1.838,0.926,3.516,2.08,4.811,3.699c1.395,1.742,1.971,3.673,1.086,5.852c-0.148,0.367-0.354,0.715-0.557,1.113
				C102.6,743.14,98.106,740.125,93.569,737.08z"/>
			<path d="M106.225,727.578c1.191,1.334,2.273,2.313,4.863,3.264c-0.715,1.143-1.43,2.271-2.137,3.404
				c-0.697,1.124-1.396,2.251-2.125,3.429c-1.48-1.618-3.23-2.829-5.322-3.574C103.081,731.924,104.642,729.765,106.225,727.578z"/>
			<path d="M115.202,728.474c-0.574,0.863-1.346,1.332-2.322,1.136c-0.854-0.175-1.711-0.46-2.49-0.851
				c-1.281-0.639-2.439-1.482-3.314-2.648c-0.828-1.106-0.881-2.137-0.18-3.211C109.649,724.749,112.405,726.598,115.202,728.474z"
				/>
		</g>
		<polygon points="98.458,742.414 91.106,755.396 100.337,743.676 		"/>
	</g>
	<g>
		<path fill="#FFFFFF" d="M108.303,718.878c-4.35-0.059-8.696-0.112-13.044-0.17c-0.529-0.01-1.06-0.028-1.589-0.044
			c-0.557-0.015-0.797-0.224-0.86-0.784c-0.215-1.893-0.424-3.783-0.637-5.676c-0.345-3.066-0.688-6.136-1.031-9.203
			c-0.11-0.988-0.222-1.979-0.323-2.97c-0.061-0.584,0.096-0.755,0.692-0.747c3.63,0.05,7.259,0.104,10.889,0.152
			c2.849,0.039,5.696,0.076,8.546,0.115c0.971,0.014,1.94,0.055,2.91,0.027c0.452-0.012,0.766,0.202,1.077,0.453
			c0.239,0.191,0.49,0.262,0.798,0.264c1.827,0.014,3.654,0.053,5.48,0.069c0.294,0.003,0.431,0.101,0.464,0.405
			c0.375,3.408,0.762,6.813,1.146,10.22c0.274,2.442,0.553,4.885,0.825,7.325c0.063,0.578-0.144,0.793-0.711,0.783
			c-2.836-0.047-5.671-0.104-8.508-0.133c-2.04-0.021-4.082-0.004-6.124-0.004C108.303,718.936,108.303,718.906,108.303,718.878z"/>
		<path fill="#FFFFFF" d="M125.44,717.363c-0.099-0.864-0.196-1.729-0.295-2.595c-0.399-3.555-0.803-7.109-1.2-10.666
			c-0.152-1.348-0.305-2.697-0.445-4.047c-0.079-0.771-0.188-0.895-0.959-0.906c-1.852-0.033-3.7-0.074-5.553-0.077
			c-0.466-0.001-0.861-0.085-1.199-0.401c-0.317-0.303-0.698-0.376-1.127-0.381c-2.715-0.021-5.431-0.057-8.146-0.096
			c-4.551-0.063-9.103-0.137-13.651-0.206c-0.08-0.001-0.16-0.016-0.234-0.021c-0.161-0.945,0.224-1.405,1.142-1.395
			c2.798,0.037,5.593,0.072,8.392,0.111c5.537,0.078,11.076,0.156,16.613,0.244c0.293,0.005,0.418-0.104,0.493-0.365
			c0.282-0.977,0.287-0.98,1.325-0.971c1.837,0.021,3.675,0.048,5.512,0.074c0.489,0.008,0.598,0.133,0.569,0.626
			c-0.3,5.503-0.595,11.005-0.894,16.507c-0.084,1.518-0.177,3.036-0.265,4.555C125.494,717.358,125.466,717.36,125.44,717.363z"/>
	</g>
	<g>
		<path fill="#333333" d="M102.541,349c4.189,0.075,7.527,1.498,10.385,4.098c0.857,0.779,1.623,1.647,2.281,2.604
			c0.063,0.092,0.092,0.281,0.039,0.366c-1.92,3.084-4.463,5.46-7.898,6.758c-4.063,1.537-7.905,0.953-11.522-1.364
			c-2.183-1.398-3.959-3.218-5.451-5.328c-0.104-0.15-0.108-0.252,0.005-0.399c2.584-3.427,5.887-5.744,10.168-6.519
			C101.299,349.078,102.074,349.049,102.541,349z M92.937,355.981c1.397,1.711,3.008,3.151,4.943,4.2
			c2.936,1.592,5.961,1.781,9.051,0.502c2.078-0.858,3.771-2.24,5.215-3.945c0.207-0.245,0.398-0.5,0.592-0.743
			C107.279,349.65,98.59,349.487,92.937,355.981z"/>
		<path fill="#333333" d="M106.861,356.23c0,2.335-1.881,4.215-4.219,4.216c-2.342,0.001-4.248-1.901-4.246-4.235
			c0.004-2.336,1.906-4.231,4.252-4.229C104.994,351.982,106.861,353.866,106.861,356.23z"/>
	</g>
	<g>
		<path fill="#333333" d="M108.949,275.377c0.537-0.537,0.521-1.418-0.03-1.973l-4.813-4.813c-0.549-0.553-1.437-0.568-1.97-0.031
			l-1.477,1.473l6.816,6.814L108.949,275.377z"/>
		<path fill="#333333" d="M90.564,286.996c0.104-0.014,1.815-0.215,3.59-0.428l-3.164-3.164
			C90.779,285.183,90.579,286.891,90.564,286.996z"/>
		<path fill="#333333" d="M94.853,280.039l6.461-6.461l-2.052-2.039c-0.112,0.111-6.418,6.416-6.67,6.67
			C93.679,278.33,94.734,278.955,94.853,280.039z"/>
		<path fill="#333333" d="M97.187,282.365l6.389-6.445l-1.87-1.871c-0.642,0.643-6.148,6.086-6.386,6.328
			c0.522,0.055,0.802,0.387,1.187,0.77C96.888,281.529,97.128,281.842,97.187,282.365z"/>
		<path fill="#333333" d="M96.669,283.248l-0.119,0.01l-0.006-0.104c-0.016-0.57-0.25-1.113-0.664-1.527
			c-0.412-0.412-0.953-0.648-1.526-0.662l-0.088,0.006l-0.003-0.129c-0.047-1.139-0.979-2.084-2.112-2.152
			c-0.043,0.375-0.244,2.068-0.442,3.76l3.354,3.352c1.691-0.199,3.385-0.398,3.76-0.443c-0.031-0.545-0.266-1.057-0.66-1.451
			C97.757,283.502,97.228,283.269,96.669,283.248z"/>
		<path fill="#333333" d="M97.535,282.687c0.537,0.061,0.853,0.332,1.24,0.719c0.392,0.391,0.576,0.871,0.638,1.406l6.62-6.623
			l-1.971-1.971L97.535,282.687z"/>
	</g>
	<g>
		<path fill="#333333" d="M90.832,333.186c3.813,0,7.563,0,11.385,0c0,0.92,0,1.791,0,2.662c0,3.088,0.004,6.174-0.002,9.262
			c-0.002,1.537-0.574,2.123-2.082,2.127c-2.492,0.006-4.984,0.012-7.477-0.004c-1.211-0.008-1.877-0.631-1.883-1.813
			c-0.021-3.938-0.006-7.874-0.004-11.811C90.769,333.501,90.801,333.39,90.832,333.186z M100.467,340.151
			c0-1.439,0.002-2.881,0-4.32c-0.002-0.457,0.041-0.997-0.592-1.023c-0.646-0.025-0.643,0.51-0.645,0.971
			c-0.004,2.938-0.004,5.875,0.002,8.813c0,0.424-0.027,0.926,0.582,0.938c0.651,0.011,0.646-0.51,0.647-0.971
			C100.471,343.089,100.465,341.62,100.467,340.151z M93.775,340.179c0-1.496,0.028-2.994-0.025-4.488
			c-0.012-0.305-0.293-0.809-0.523-0.854c-0.551-0.112-0.674,0.371-0.674,0.831c-0.004,2.993-0.004,5.986-0.002,8.979
			c0.002,0.448,0.072,0.955,0.643,0.851c0.236-0.043,0.543-0.532,0.556-0.828C93.805,343.174,93.773,341.676,93.775,340.179z
			 M97.119,340.181c0-1.47-0.006-2.938,0.004-4.408c0-0.478-0.012-1.022-0.633-0.936c-0.234,0.033-0.557,0.592-0.563,0.916
			c-0.043,2.938-0.024,5.875-0.024,8.813c0,0.461-0.033,0.985,0.635,0.961c0.592-0.022,0.582-0.504,0.582-0.94
			C97.119,343.117,97.119,341.649,97.119,340.181z"/>
		<path fill="#333333" d="M103.156,332.462c-4.435,0-8.865,0-13.295,0c-0.078-1.102,0.705-2.049,1.854-2.064
			c3.201-0.041,6.402-0.041,9.602,0.004C102.412,330.415,103.137,331.297,103.156,332.462z"/>
		<path fill="#333333" d="M94.344,329.649c0.125-0.797,0.629-0.957,1.285-0.969c2.656-0.043,2.674-0.045,2.994,0.969
			C97.213,329.649,95.824,329.649,94.344,329.649z"/>
	</g>
	<g>
		
			<rect x="93.941" y="92.499" transform="matrix(0.7069 -0.7073 0.7073 0.7069 -38.0295 95.2494)" fill="#4E4E4E" width="3.956" height="2.029"/>
		
			<rect x="90.677" y="95.773" transform="matrix(-0.707 -0.7072 0.7072 -0.707 87.3838 231.706)" fill="#4E4E4E" width="2.029" height="3.956"/>
		
			<rect x="94.891" y="95.789" transform="matrix(-0.7075 0.7067 -0.7067 -0.7075 232.8521 99.155)" fill="#4E4E4E" width="2.029" height="3.958"/>
		
			<rect x="90.668" y="91.539" transform="matrix(0.7067 -0.7075 0.7075 0.7067 -39.2745 92.2869)" fill="#4E4E4E" width="2.028" height="3.957"/>
		
			<rect x="92.788" y="94.616" transform="matrix(-0.7071 -0.7071 0.7071 -0.7071 92.5112 229.5799)" fill="#4E4E4E" width="2.03" height="2.029"/>
	</g>
</g>
</svg>
