<?xml version="1.0" encoding="utf-8"?>
<!-- Generator: Adobe Illustrator 16.0.0, SVG Export Plug-In . SVG Version: 6.00 Build 0)  -->
<!DOCTYPE svg PUBLIC "-//W3C//DTD SVG 1.1//EN" "http://www.w3.org/Graphics/SVG/1.1/DTD/svg11.dtd">
<svg version="1.1" id="Layer_1" xmlns="http://www.w3.org/2000/svg" xmlns:xlink="http://www.w3.org/1999/xlink" x="0px" y="0px"
	 width="79px" height="531px" viewBox="0 0 79 531" enable-background="new 0 0 79 531" xml:space="preserve">
<rect x="182" y="473" display="none" fill="#444444" width="471.999" height="436"/>
<g>
	<polygon fill="#333333" points="34.161,65 31.741,60.809 29.321,56.616 34.161,56.616 39,56.616 36.58,60.809 	"/>
</g>
<path fill="#333333" d="M-583,1315.707"/>
<g>
	
		<image overflow="visible" enable-background="new    " width="963" height="233" xlink:href="FA2D2DF8.png"  transform="matrix(0.2393 0 0 0.2369 -666.0005 -1636)">
	</image>
	<g>
		<g>
			
				<image overflow="visible" enable-background="new    " width="921" height="192" xlink:href="FA2D2DF9.png"  transform="matrix(0.239 0 0 0.235 -660.5005 -1631.5)">
			</image>
			<path fill="#333333" d="M-440-1586h-221v-46h221V-1586z M-660-1587h219v-44h-219V-1587z"/>
		</g>
		<rect x="-658.822" y="-1641.5" fill="none" width="218.344" height="27"/>
		
			<image overflow="visible" enable-background="new    " width="921" height="96" xlink:href="FA2D2DFF.png"  transform="matrix(0.2379 0 0 0.235 -660.0405 -1631)">
		</image>
	</g>
	<g>
		<rect x="-666.426" y="-1609" fill="none" width="125.149" height="14.5"/>
		
			<text transform="matrix(1 0 0 1 -652.8535 -1600.4082)" display="none" fill="#4E4E4E" enable-background="new    " font-family="'Arial-BoldMT'" font-size="12">Content Manager</text>
		<rect x="-660.5" y="-1616.898" fill="none" width="220.021" height="21.797"/>
		<text transform="matrix(1 0 0 1 -588.4873 -1599.7148)" fill="#333333" font-family="'Arial-BoldMT'" font-size="24">LOGIN</text>
	</g>
</g>
<g transform="matrix(0.24 0 0 0.24 -1421.1055 -1838.4746)">
	<g>
		<rect x="9.336" y="166.17" fill="#333333" width="6.171" height="3.166"/>
		<rect x="0" y="166.17" fill="#333333" width="6.173" height="3.166"/>
		<rect x="6.173" y="169.334" fill="#333333" width="3.164" height="6.171"/>
		<rect x="6.173" y="159.999" fill="#333333" width="3.164" height="6.171"/>
		<rect x="6.173" y="166.17" fill="#333333" width="3.164" height="3.166"/>
	</g>
</g>
<g>
	<g>
		<g>
			<g>
				<rect x="28" y="243" fill="#1A1A1A" width="14" height="7"/>
				<path fill="#1A1A1A" d="M34,245.441c0,0.063-0.112-0.441-0.154-0.441h-5.117c-0.043,0,0.271,0.504,0.271,0.441v-3.766
					c0-0.064-0.14-0.116-0.097-0.116l5.067,0.521c0.043,0,0.029,0.052,0.029,0.116L34,245.441L34,245.441z"/>
			</g>
		</g>
	</g>
</g>
<g>
	<g>
		<g>
			<rect x="2" y="237" fill="#1A1A1A" width="11" height="13"/>
			<line fill="none" stroke="#FFFFFF" stroke-miterlimit="10" x1="4" y1="239.5" x2="11" y2="239.5"/>
			<line fill="none" stroke="#FFFFFF" stroke-miterlimit="10" x1="4" y1="241.5" x2="11" y2="241.5"/>
			<line fill="none" stroke="#FFFFFF" stroke-miterlimit="10" x1="4" y1="243.5" x2="11" y2="243.5"/>
			<line fill="none" stroke="#FFFFFF" stroke-miterlimit="10" x1="4" y1="245.5" x2="11" y2="245.5"/>
			<line fill="none" stroke="#FFFFFF" stroke-miterlimit="10" x1="4" y1="247.5" x2="11" y2="247.5"/>
		</g>
	</g>
</g>
<g>
	<g>
		<circle fill="#242424" cx="20.452" cy="240.105" r="3.106"/>
		<circle fill="#FFFFFF" cx="20.452" cy="240.133" r="2.337"/>
		<rect x="15" y="240.048" fill="#242424" width="11" height="10"/>
		<rect x="17" y="242.048" fill="#FFFFFF" width="7" height="1"/>
	</g>
</g>
<g>
	<g>
		<rect x="29" y="33" fill="#333333" width="11" height="14"/>
		<path fill="#E6E6E5" d="M31,45.726C31,45.805,30.906,46,30.856,46h-0.551C30.255,46,30,45.805,30,45.726V34.277
			C30,34.197,30.255,34,30.306,34h0.551C30.906,34,31,34.197,31,34.277V45.726z"/>
		<path fill="#E6E6E5" d="M33,45.726C33,45.805,32.888,46,32.837,46h-0.551C32.236,46,32,45.805,32,45.726V34.277
			C32,34.197,32.236,34,32.286,34h0.551C32.888,34,33,34.197,33,34.277V45.726z"/>
		<path fill="#E6E6E5" d="M35,45.726C35,45.805,34.868,46,34.817,46h-0.55C34.217,46,34,45.805,34,45.726V34.277
			C34,34.197,34.217,34,34.268,34h0.55C34.868,34,35,34.197,35,34.277V45.726z"/>
		<path fill="#E6E6E5" d="M37,45.726C37,45.805,36.849,46,36.798,46h-0.55C36.197,46,36,45.805,36,45.726V34.277
			C36,34.197,36.197,34,36.248,34h0.55C36.849,34,37,34.197,37,34.277V45.726z"/>
		<path fill="#E6E6E5" d="M39,45.726C39,45.805,38.83,46,38.779,46h-0.551C38.178,46,38,45.805,38,45.726V34.277
			C38,34.197,38.178,34,38.229,34h0.551c0.05,0,0.22,0.197,0.22,0.277V45.726z"/>
		<path fill="#333333" d="M41,32.193C41,32.251,40.934,32,40.851,32H28.307C28.226,32,28,32.251,28,32.193v-1.258
			C28,30.878,28.226,31,28.307,31h12.544C40.934,31,41,30.878,41,30.936V32.193z"/>
		<path fill="#333333" d="M37,31.276C37,31.368,37.084,31,37.052,31h-5.019C32.001,31,32,31.368,32,31.276v-1.96
			C32,29.227,32.001,29,32.033,29h5.019C37.084,29,37,29.227,37,29.316V31.276z"/>
	</g>
</g>
<g>
	<g>
		<g>
			<path fill="#333333" d="M29.092,174v-4.65h-4.688v-3.211h4.688v-4.65h3.125v4.65h4.701v3.211h-4.701V174H29.092z"/>
		</g>
		<circle fill="none" stroke="#333333" stroke-width="3" stroke-miterlimit="10" cx="30.667" cy="167.249" r="10.333"/>
	</g>
</g>
<g>
	<g>
		<rect x="8.842" y="226.827" fill="#333333" width="20" height="4"/>
		<polygon fill="#333333" points="10.168,233.563 2,228.596 10.383,224 		"/>
	</g>
</g>
<g>
	<g>
		<path fill="#818181" d="M10.748,195.838v-3.223H7.5v-2.225h3.248v-3.223h2.166v3.223h3.256v2.225h-3.256v3.223H10.748z"/>
	</g>
	<circle fill="none" stroke="#818181" stroke-width="1.5" stroke-miterlimit="10" cx="11.84" cy="191.16" r="7.16"/>
</g>
<g>
	<g>
		<path fill="#818181" d="M34.051,195.385l-2.23-2.327l-2.346,2.248l-1.539-1.606l2.346-2.247l-2.23-2.327l1.563-1.498l2.23,2.327
			l2.352-2.254l1.539,1.606l-2.352,2.253l2.23,2.327L34.051,195.385z"/>
	</g>
	<circle fill="none" stroke="#818181" stroke-width="1.5" stroke-miterlimit="10" cx="31.84" cy="191.16" r="7.16"/>
</g>
<g>
	<g>
		<circle fill="none" stroke="#818181" stroke-width="1.5" stroke-miterlimit="10" cx="11.84" cy="211.16" r="7.16"/>
	</g>
	<g>
		<circle fill="#818181" cx="11.75" cy="211.251" r="4.936"/>
	</g>
</g>
<g>
	<rect x="2" y="121" fill="#FFFFFF" stroke="#B4B4B4" stroke-miterlimit="10" width="16" height="16"/>
	<g>
		<rect x="10.882" y="127.781" fill="#8DC641" width="4.273" height="2.191"/>
		<rect x="4.414" y="127.782" fill="#8DC641" width="4.275" height="2.191"/>
		<rect x="8.689" y="129.972" fill="#8DC641" width="2.192" height="4.275"/>
		<rect x="8.689" y="123.506" fill="#8DC641" width="2.192" height="4.275"/>
		<rect x="8.689" y="127.781" fill="#8DC641" width="2.192" height="2.192"/>
		<rect x="8.689" y="127.781" fill="#8DC641" width="2.192" height="2.192"/>
	</g>
</g>
<g>
	<path fill="#989898" d="M19.605,57.248c0.538-0.537,0.523-1.426-0.033-1.982l-4.839-4.838c-0.556-0.557-1.444-0.572-1.982-0.033
		l-1.482,1.482l6.854,6.855L19.605,57.248z"/>
	
		<rect x="14.139" y="50.333" transform="matrix(-0.7081 0.7062 -0.7062 -0.7081 63.8582 84.8176)" fill="#989898" width="0.514" height="10.552"/>
	<path fill="#989898" d="M2.795,67.203c0.107-0.013,1.826-0.215,3.613-0.428l-3.184-3.184C3.012,65.378,2.809,67.098,2.795,67.203z"
		/>
	<path fill="#989898" d="M5.986,61.594l6.894-6.893l-2.165-2.166c-0.117,0.117-6.635,6.635-6.895,6.896
		C4.943,59.555,5.861,60.472,5.986,61.594z"/>
	<path fill="#989898" d="M8.277,63.887l6.895-6.895l-2.164-2.165c-0.668,0.669-6.646,6.647-6.895,6.896
		c0.545,0.059,1.059,0.306,1.458,0.705C7.973,62.828,8.218,63.341,8.277,63.887z"/>
	<path fill="#989898" d="M8.242,64.178L8.123,64.19l-0.007-0.105c-0.014-0.573-0.25-1.119-0.666-1.535
		c-0.415-0.416-0.961-0.652-1.536-0.666l-0.088,0.004l-0.004-0.129c-0.047-1.144-0.984-2.095-2.124-2.163
		c-0.044,0.376-0.247,2.079-0.448,3.78l3.374,3.375c1.701-0.202,3.405-0.406,3.78-0.448c-0.031-0.547-0.265-1.063-0.662-1.46
		C9.336,64.434,8.805,64.199,8.242,64.178z"/>
	<path fill="#989898" d="M8.406,64.014c0.546,0.061,1.059,0.307,1.457,0.707c0.4,0.399,0.646,0.912,0.706,1.459l6.895-6.895
		l-2.165-2.166L8.406,64.014z"/>
</g>
<path fill="#333333" d="M35.697,6.937l-4.303,7.453h2.21c0,0,0,1.643,0,3.229c0,1.588-2.081,3.382-2.081,3.382
	s4.896-0.489,5.713-2.284c0.815-1.796,0.554-4.326,0.554-4.326H40L35.697,6.937z"/>
<polygon fill="#636467" points="33.84,80 31.42,75.809 29,71.616 33.84,71.616 38.679,71.616 36.259,75.809 "/>
<g>
	<rect x="20.26" y="97.74" fill="#6D9E40" width="11.74" height="6.02"/>
	<rect x="2.498" y="97.741" fill="#6D9E40" width="11.74" height="6.02"/>
	<rect x="14.238" y="103.759" fill="#6D9E40" width="6.021" height="11.741"/>
	<rect x="14.238" y="86" fill="#6D9E40" width="6.021" height="11.74"/>
	<rect x="14.238" y="97.739" fill="#6D9E40" width="6.021" height="6.021"/>
</g>
<g>
	
		<rect x="36.898" y="225.64" transform="matrix(-0.707 0.7072 -0.7072 -0.707 226.6577 359.4008)" fill="#4E4E4E" width="3.957" height="2.029"/>
	
		<rect x="33.633" y="228.907" transform="matrix(0.707 0.7072 -0.7072 0.707 173.4406 43.1486)" fill="#4E4E4E" width="2.029" height="3.957"/>
	
		<rect x="37.863" y="228.916" transform="matrix(0.7075 -0.7067 0.7067 0.7075 -151.8114 95.0208)" fill="#4E4E4E" width="2.029" height="3.958"/>
	
		<rect x="33.625" y="224.68" transform="matrix(-0.707 0.7072 -0.7072 -0.707 219.4287 362.4047)" fill="#4E4E4E" width="2.029" height="3.957"/>
	
		<rect x="35.75" y="227.754" transform="matrix(0.7071 0.7071 -0.7071 0.7071 172.5318 41.008)" fill="#4E4E4E" width="2.03" height="2.029"/>
</g>
<g>
	
		<rect x="31.53" y="206.467" transform="matrix(-0.7069 0.7073 -0.7073 -0.7069 205.3206 330.5661)" fill="#989898" width="5.285" height="2.71"/>
	
		<rect x="27.161" y="210.841" transform="matrix(0.7071 0.7071 -0.7071 0.7071 159.3081 42.3639)" fill="#989898" width="2.711" height="5.286"/>
	
		<rect x="32.825" y="210.829" transform="matrix(0.7075 -0.7067 0.7067 0.7075 -140.8718 86.6047)" fill="#989898" width="2.711" height="5.287"/>
	
		<rect x="27.16" y="205.183" transform="matrix(-0.7071 0.7071 -0.7071 -0.7071 195.6333 334.6165)" fill="#989898" width="2.711" height="5.285"/>
	
		<rect x="29.988" y="209.3" transform="matrix(0.7071 0.7071 -0.7071 0.7071 158.1361 39.5364)" fill="#989898" width="2.712" height="2.711"/>
	
		<rect x="29.988" y="209.3" transform="matrix(0.7071 0.7071 -0.7071 0.7071 158.1361 39.5364)" fill="#989898" width="2.712" height="2.711"/>
</g>
<g>
	<path fill="#989898" d="M14.389,74.91c0.365-0.364,0.355-0.966-0.021-1.343l-3.279-3.278c-0.377-0.377-0.979-0.387-1.344-0.021
		L8.74,71.271l4.645,4.645L14.389,74.91z"/>
	
		<rect x="10.683" y="70.225" transform="matrix(-0.7071 0.7071 -0.7071 -0.7071 70.7169 118.3053)" fill="#989898" width="0.348" height="7.148"/>
	<path fill="#989898" d="M3,81.655c0.072-0.009,1.236-0.146,2.447-0.29l-2.156-2.156C3.146,80.418,3.008,81.584,3,81.655z"/>
	<path fill="#989898" d="M5.162,77.855l4.67-4.671l-1.467-1.468c-0.079,0.08-4.495,4.496-4.672,4.672
		C4.455,76.473,5.076,77.094,5.162,77.855z"/>
	<path fill="#989898" d="M6.714,79.408l4.671-4.671L9.918,73.27c-0.452,0.453-4.502,4.504-4.671,4.672
		c0.37,0.041,0.718,0.207,0.988,0.479C6.507,78.691,6.674,79.038,6.714,79.408z"/>
	<path fill="#989898" d="M6.689,79.605l-0.08,0.008l-0.005-0.071c-0.009-0.389-0.169-0.759-0.451-1.04
		c-0.281-0.281-0.651-0.442-1.04-0.451l-0.061,0.002L5.05,77.965c-0.03-0.774-0.667-1.418-1.439-1.465
		c-0.029,0.254-0.167,1.409-0.304,2.562l2.286,2.286c1.152-0.137,2.307-0.274,2.562-0.303c-0.021-0.371-0.18-0.721-0.448-0.99
		C7.431,79.778,7.07,79.62,6.689,79.605z"/>
	<path fill="#989898" d="M6.801,79.494c0.37,0.041,0.717,0.207,0.987,0.479c0.271,0.271,0.438,0.618,0.479,0.988l4.671-4.671
		l-1.467-1.467L6.801,79.494z"/>
</g>
<g>
	<rect x="31.523" y="127.191" fill="#8DC641" width="5.477" height="2.808"/>
	<rect x="23.24" y="127.192" fill="#8DC641" width="5.476" height="2.808"/>
	<rect x="28.716" y="129.999" fill="#8DC641" width="2.808" height="5.477"/>
	<rect x="28.716" y="121.716" fill="#8DC641" width="2.808" height="5.476"/>
	<rect x="28.716" y="127.191" fill="#8DC641" width="2.808" height="2.809"/>
</g>
<g>
	<polygon fill="#818181" points="4.781,40.248 9.153,44.938 19.441,35.328 15.09,30.59 	"/>
	<path fill="#818181" d="M3.433,41.908c0.073-0.265,0.289-0.318,0.479-0.119l3.754,3.936c0.189,0.198,0.123,0.397-0.148,0.442
		l-5.023,0.824c-0.271,0.045-0.433-0.136-0.359-0.4L3.433,41.908z"/>
	<path fill="#818181" d="M15.653,30.195l4.333,4.643l1.057-1.008c0,0,0.557-0.86,0.071-1.469c-0.486-0.609-2.618-2.941-2.618-2.941
		s-0.547-0.463-1.3-0.417C16.805,29.026,15.653,30.195,15.653,30.195z"/>
</g>
<g>
	<polygon fill="#1A1A1A" points="5.446,16.689 11.411,23.087 25.446,9.977 19.511,3.512 	"/>
	<path fill="#1A1A1A" d="M3.654,18.778c0.073-0.265,0.289-0.318,0.479-0.12l5.373,5.635c0.189,0.198,0.123,0.397-0.148,0.442
		l-7.213,1.184c-0.271,0.045-0.433-0.136-0.359-0.4L3.654,18.778z"/>
	<path fill="#1A1A1A" d="M20.278,2.975l5.912,6.334l1.441-1.375c0,0,0.76-1.174,0.098-2.004c-0.664-0.832-3.572-4.014-3.572-4.014
		s-0.746-0.631-1.773-0.568C21.85,1.379,20.278,2.975,20.278,2.975z"/>
</g>
<g>
	<polyline fill="none" stroke="#8CC541" stroke-width="3" stroke-miterlimit="10" points="3,146.36 6.36,150.84 17,143 	"/>
</g>
<rect x="23" y="145" fill="#8DC641" width="16" height="4"/>
<image display="none" overflow="visible" enable-background="new    " width="1846" height="1517" xlink:href="FA2D2DFA.png"  transform="matrix(0.2396 0 0 0.2389 -24.98 440.7752)">
</image>
<image display="none" overflow="visible" enable-background="new    " width="1908" height="933" xlink:href="FA2D2DFB.png"  transform="matrix(0.2394 0 0 0.2382 208.6953 467.9568)">
</image>
<polygon display="none" fill="#242424" points="30,671.775 14.094,662.962 30,654.146 "/>
<g>
	<g>
		<g>
			<path fill="#FFFFFF" d="M10.596,454.977c0.188,0.019,0.373,0.039,0.559,0.051c0.094,0.006,0.131,0.04,0.145,0.138
				c0.082,0.554,0.17,1.107,0.262,1.66c0.006,0.039,0.059,0.09,0.1,0.102c0.402,0.109,0.789,0.264,1.152,0.468
				c0.068,0.039,0.115,0.036,0.178-0.009c0.467-0.324,0.938-0.643,1.402-0.969c0.086-0.061,0.141-0.063,0.217,0.01
				c0.289,0.273,0.588,0.535,0.873,0.812c0.129,0.123,0.236,0.268,0.361,0.411c-0.027,0.04-0.053,0.077-0.078,0.113
				c-0.322,0.441-0.641,0.884-0.965,1.32c-0.051,0.068-0.049,0.115-0.006,0.184c0.229,0.363,0.41,0.75,0.533,1.163
				c0.023,0.073,0.057,0.104,0.135,0.118c0.559,0.099,1.117,0.202,1.676,0.302c0.08,0.015,0.111,0.044,0.123,0.133
				c0.076,0.536,0.115,1.075,0.066,1.617c-0.002,0.03-0.004,0.063-0.008,0.104c-0.264,0.042-0.527,0.085-0.791,0.128
				c-0.328,0.051-0.654,0.105-0.98,0.154c-0.059,0.01-0.084,0.028-0.098,0.092c-0.1,0.486-0.266,0.949-0.5,1.389
				c-0.018,0.034,0,0.104,0.025,0.142c0.309,0.453,0.621,0.903,0.934,1.354c0.033,0.049,0.066,0.097,0.104,0.15
				c-0.354,0.483-0.76,0.916-1.227,1.305c-0.037-0.025-0.074-0.051-0.111-0.078c-0.436-0.315-0.869-0.631-1.303-0.949
				c-0.068-0.052-0.117-0.059-0.193-0.008c-0.426,0.285-0.891,0.493-1.385,0.631c-0.074,0.021-0.107,0.058-0.121,0.132
				c-0.1,0.559-0.205,1.116-0.309,1.676c-0.014,0.07-0.023,0.126-0.121,0.135c-0.541,0.05-1.08,0.063-1.621,0.022
				c-0.012-0.001-0.023-0.006-0.045-0.012c-0.049-0.307-0.1-0.617-0.148-0.928c-0.043-0.275-0.09-0.553-0.131-0.829
				c-0.01-0.062-0.029-0.092-0.098-0.105c-0.527-0.115-1.027-0.306-1.49-0.588c-0.072-0.044-0.121-0.035-0.186,0.011
				c-0.455,0.314-0.912,0.628-1.367,0.939c-0.035,0.024-0.07,0.048-0.107,0.074c-0.469-0.363-0.881-0.772-1.252-1.24
				c0.023-0.032,0.047-0.066,0.07-0.102c0.326-0.446,0.65-0.896,0.979-1.339c0.045-0.061,0.047-0.102,0.008-0.164
				c-0.275-0.447-0.475-0.926-0.592-1.438c-0.02-0.08-0.057-0.11-0.139-0.125c-0.553-0.096-1.102-0.198-1.654-0.294
				c-0.086-0.015-0.107-0.051-0.113-0.126c-0.006-0.107-0.02-0.217-0.031-0.324c0-0.24,0-0.481,0-0.725
				c0.018-0.177,0.039-0.354,0.051-0.532c0.006-0.079,0.033-0.11,0.117-0.124c0.551-0.082,1.1-0.172,1.648-0.256
				c0.076-0.012,0.121-0.039,0.143-0.123c0.119-0.47,0.309-0.912,0.564-1.325c0.039-0.063,0.033-0.105-0.008-0.165
				c-0.318-0.459-0.631-0.918-0.945-1.377c-0.025-0.034-0.045-0.069-0.066-0.103c0.359-0.456,0.953-1.037,1.303-1.271
				c0.033,0.022,0.068,0.046,0.104,0.071c0.451,0.324,0.904,0.649,1.355,0.978c0.053,0.038,0.092,0.05,0.154,0.014
				c0.389-0.229,0.803-0.396,1.238-0.506c0.064-0.018,0.094-0.047,0.105-0.117c0.039-0.24,0.086-0.481,0.131-0.723
				c0.066-0.354,0.131-0.709,0.195-1.056c0.168-0.023,0.324-0.047,0.48-0.069C10.129,454.977,10.363,454.977,10.596,454.977z
				 M10.281,464.43c1.352,0.001,2.455-1.096,2.449-2.434c-0.008-1.359-1.109-2.44-2.494-2.445c-1.295-0.004-2.389,1.121-2.387,2.452
				C7.855,463.353,8.934,464.43,10.281,464.43z"/>
		</g>
	</g>
	<g>
		<g>
			<path fill="#FDFEFF" d="M31.623,456.503c0.504,0.15,0.963,0.357,1.381,0.636c2.141,1.419,3.217,3.41,2.959,5.979
				c-0.256,2.559-1.652,4.367-4.051,5.295c-2.779,1.076-5.781,0.102-7.49-2.34c-1.861-2.658-1.301-6.453,1.246-8.474
				c0.568-0.448,1.186-0.801,1.865-1.049c0.129-0.047,0.178-0.045,0.176,0.115c-0.01,0.645-0.012,1.289,0,1.934
				c0.004,0.162-0.094,0.213-0.199,0.276c-0.873,0.521-1.488,1.255-1.844,2.212c-0.566,1.539-0.148,3.361,1.063,4.479
				c1.213,1.118,2.641,1.475,4.209,0.982c1.559-0.49,2.555-1.586,2.885-3.189c0.334-1.608-0.18-2.971-1.408-4.061
				c-0.205-0.18-0.43-0.33-0.666-0.465c-0.07-0.04-0.131-0.08-0.127-0.182C31.623,457.944,31.623,457.235,31.623,456.503z"/>
			<path fill="#FDFEFF" d="M30.74,458.899c0,1.187-0.006,2.372,0.004,3.559c0,0.164-0.039,0.209-0.205,0.206
				c-0.584-0.011-1.172-0.007-1.758-0.002c-0.131,0.001-0.195-0.017-0.195-0.174c0.008-2.396,0.008-4.788,0.004-7.184
				c0-0.136,0.041-0.176,0.174-0.174c0.6,0.006,1.199,0.008,1.801-0.002c0.15-0.002,0.18,0.054,0.178,0.189
				C30.738,456.512,30.74,457.706,30.74,458.899z"/>
		</g>
	</g>
	<g>
		<path fill="#8DC641" d="M6.77,298.148v-5.724H1v-3.952h5.77v-5.724h3.848v5.724h5.785v3.952h-5.785v5.724H6.77z"/>
	</g>
	<g>
		<path fill="#8DC641" d="M9.533,259.135l-5.467,9.469h2.809c0,0,0,2.086,0,4.101c0,2.017-2.643,4.297-2.643,4.297
			s6.219-0.622,7.256-2.901c1.037-2.281,0.705-5.496,0.705-5.496H15L9.533,259.135z"/>
	</g>
	<g>
		<path fill="#8DC641" d="M1,316.929c0.584,0.6,1.138,1.17,1.695,1.74c0.967-0.967,1.907-1.906,2.83-2.83
			c1.222,1.223,2.426,2.426,3.643,3.641c-0.92,0.92-1.859,1.858-2.812,2.806c0.577,0.567,1.146,1.127,1.712,1.684
			c-0.009,0.015-0.017,0.028-0.025,0.044c-2.343,0-4.687,0-7.043,0C1,321.674,1,319.327,1,316.929z"/>
		<path fill="#8DC641" d="M12.523,316.136c-1.221-1.222-2.418-2.419-3.615-3.618c0.915-0.916,1.839-1.84,2.786-2.785
			c-0.604-0.584-1.174-1.139-1.786-1.731c2.407,0,4.751,0,7.107,0c0,2.34,0,4.685,0,7.022c-0.554-0.562-1.114-1.129-1.679-1.703
			C14.37,314.287,13.449,315.208,12.523,316.136z"/>
	</g>
	<g>
		<g>
			<rect x="7" y="333" fill="#F3F3F3" width="27" height="17"/>
			<rect x="9" y="335" fill="#AAD037" width="21" height="13"/>
		</g>
		<g>
			
				<rect x="13.415" y="332.708" transform="matrix(-0.9889 -0.1489 0.1489 -0.9889 -0.8285 681.4444)" fill="#F3F3F3" width="23.361" height="16.09"/>
			
				<rect x="15.194" y="334.619" transform="matrix(-0.9889 -0.1488 0.1488 -0.9889 -0.7727 681.4398)" fill="#AAD037" width="19.821" height="12.26"/>
		</g>
	</g>
	<g>
		<g>
			<g>
				
					<image overflow="visible" enable-background="new    " width="104" height="100" xlink:href="FA2D2DF6.png"  transform="matrix(0.2285 0 0 0.2376 19.3339 302.9998)">
				</image>
			</g>
		</g>
	</g>
	<g>
		<g>
			<g>
				
					<rect x="30.333" y="284.17" transform="matrix(-0.7071 0.7071 -0.7071 -0.7071 262.6358 464.4642)" fill="#AAD037" width="9.582" height="4.911"/>
				
					<rect x="22.422" y="292.087" transform="matrix(0.7071 0.7071 -0.7071 0.7071 217.2107 69.3625)" fill="#AAD037" width="4.911" height="9.582"/>
				
					<rect x="32.674" y="292.087" transform="matrix(0.7072 -0.7071 0.7071 0.7072 -199.622 111.7773)" fill="#AAD037" width="4.911" height="9.582"/>
				
					<rect x="22.421" y="281.835" transform="matrix(-0.7071 0.7071 -0.7071 -0.7071 245.1417 471.7105)" fill="#AAD037" width="4.911" height="9.582"/>
				
					<rect x="27.545" y="289.299" transform="matrix(0.7071 0.7071 -0.7071 0.7071 215.0888 64.2391)" fill="#AAD037" width="4.911" height="4.911"/>
				
					<rect x="27.545" y="289.299" transform="matrix(0.7071 0.7071 -0.7071 0.7071 215.0888 64.2391)" fill="#AAD037" width="4.911" height="4.911"/>
			</g>
		</g>
		<g>
			<g>
				<g>
					<path fill="#AAD037" d="M42.516,263.903c0.661-0.662,0.645-1.752-0.039-2.436l-5.943-5.943
						c-0.68-0.684-1.773-0.701-2.432-0.039l-1.824,1.819l8.418,8.418L42.516,263.903z"/>
					
						<rect x="35.28" y="255.949" transform="matrix(-0.709 0.7052 -0.7052 -0.709 245.8898 423.3986)" fill="#AAD037" width="0.631" height="12.958"/>
					<path fill="#AAD037" d="M20.237,277.762c0.131-0.018,2.244-0.266,4.436-0.527l-3.908-3.907
						C20.503,275.521,20.255,277.631,20.237,277.762z"/>
					<path fill="#AAD037" d="M25.104,269.662l7.98-7.98l-2.535-2.519c-0.139,0.138-7.926,7.925-8.236,8.237
						C23.653,267.55,24.956,268.323,25.104,269.662z"/>
					<path fill="#AAD037" d="M27.987,272.535l7.891-7.962l-2.311-2.31c-0.793,0.793-7.594,7.518-7.887,7.814
						c0.646,0.067,0.988,0.479,1.463,0.95C27.618,271.504,27.915,271.888,27.987,272.535z"/>
					<path fill="#AAD037" d="M27.349,273.625l-0.148,0.014l-0.008-0.127c-0.018-0.705-0.309-1.377-0.818-1.887
						s-1.178-0.801-1.887-0.818l-0.109,0.008l-0.004-0.16c-0.057-1.404-1.207-2.572-2.609-2.657
						c-0.053,0.464-0.301,2.555-0.547,4.646l4.141,4.141c2.09-0.246,4.182-0.494,4.645-0.549c-0.039-0.672-0.326-1.305-0.814-1.791
						C28.69,273.939,28.038,273.652,27.349,273.625z"/>
					<path fill="#AAD037" d="M28.417,272.933c0.662,0.072,1.051,0.408,1.531,0.887c0.482,0.482,0.713,1.076,0.785,1.736l8.18-8.18
						l-2.434-2.434L28.417,272.933z"/>
				</g>
			</g>
		</g>
	</g>
	<g>
		<g>
			<path fill="#FFFFFF" d="M4.958,507.873c1.007-1.428,2.301-2.333,4.046-2.503c1.488-0.146,2.863,0.28,4.17,0.937
				c1.837,0.925,3.516,2.08,4.811,3.699c1.393,1.742,1.969,3.673,1.086,5.851c-0.149,0.368-0.355,0.715-0.557,1.114
				C13.989,513.933,9.494,510.918,4.958,507.873z"/>
			<path fill="#FFFFFF" d="M17.613,498.371c1.191,1.334,2.273,2.314,4.863,3.264c-0.715,1.142-1.428,2.271-2.135,3.404
				c-0.699,1.124-1.395,2.251-2.125,3.429c-1.482-1.618-3.232-2.829-5.322-3.574C14.469,502.717,16.03,500.558,17.613,498.371z"/>
			<path fill="#FFFFFF" d="M26.59,499.267c-0.574,0.863-1.346,1.332-2.323,1.135c-0.854-0.174-1.71-0.46-2.489-0.85
				c-1.283-0.639-2.441-1.483-3.315-2.649c-0.829-1.106-0.882-2.136-0.181-3.211C21.037,495.542,23.793,497.391,26.59,499.267z"/>
		</g>
		<path fill="#FFFFFF" d="M10.676,513.764c-0.456-0.307-1.052-0.166-1.323,0.313L2.988,525.32c-0.271,0.479-0.215,0.517,0.126,0.085
			l7.992-10.15c0.341-0.432,0.245-1.036-0.211-1.343L10.676,513.764z"/>
	</g>
	<g>
		<path fill="#333333" d="M20.496,449.287c-4.349-0.057-8.696-0.112-13.044-0.17c-0.529-0.008-1.059-0.028-1.588-0.042
			c-0.557-0.016-0.797-0.225-0.861-0.786c-0.215-1.891-0.424-3.783-0.637-5.674c-0.344-3.068-0.688-6.137-1.031-9.205
			c-0.111-0.988-0.221-1.979-0.323-2.968c-0.061-0.584,0.095-0.756,0.692-0.747c3.63,0.048,7.259,0.102,10.889,0.151
			c2.849,0.039,5.696,0.076,8.545,0.115c0.971,0.014,1.941,0.055,2.911,0.029c0.452-0.013,0.765,0.202,1.077,0.453
			c0.239,0.19,0.49,0.26,0.798,0.262c1.827,0.014,3.654,0.053,5.481,0.071c0.293,0.003,0.43,0.099,0.463,0.404
			c0.375,3.408,0.762,6.813,1.145,10.221c0.275,2.441,0.554,4.883,0.826,7.324c0.064,0.578-0.143,0.793-0.711,0.783
			c-2.836-0.047-5.671-0.104-8.508-0.133c-2.04-0.02-4.082-0.004-6.124-0.004C20.496,449.345,20.496,449.316,20.496,449.287z"/>
		<path fill="#333333" d="M37.634,447.772c-0.099-0.864-0.197-1.729-0.295-2.596c-0.4-3.555-0.803-7.108-1.201-10.666
			c-0.152-1.348-0.304-2.696-0.445-4.047c-0.08-0.771-0.188-0.893-0.959-0.906c-1.851-0.032-3.701-0.073-5.553-0.076
			c-0.465-0.001-0.861-0.085-1.198-0.403c-0.319-0.301-0.7-0.376-1.128-0.379c-2.715-0.023-5.43-0.058-8.145-0.097
			c-4.551-0.064-9.102-0.137-13.652-0.206c-0.08-0.001-0.16-0.016-0.235-0.021c-0.161-0.945,0.224-1.405,1.142-1.393
			c2.796,0.036,5.592,0.071,8.39,0.11c5.538,0.078,11.076,0.156,16.614,0.244c0.293,0.005,0.418-0.102,0.494-0.365
			c0.282-0.977,0.287-0.98,1.325-0.971c1.837,0.021,3.675,0.048,5.512,0.074c0.489,0.008,0.596,0.133,0.569,0.626
			c-0.299,5.503-0.594,11.005-0.893,16.507c-0.083,1.518-0.176,3.036-0.264,4.555C37.687,447.767,37.659,447.769,37.634,447.772z"/>
	</g>
	<g>
		
			<image overflow="visible" enable-background="new    " width="150" height="154" xlink:href="FA2D2DF7.png"  transform="matrix(0.24 0 0 0.2353 3.9999 357.9998)">
		</image>
	</g>
	<g>
		<g>
			<path fill="#CDCCCC" d="M19.063,491.718c-3.494-0.046-6.988-0.09-10.484-0.136c-0.426-0.006-0.85-0.023-1.275-0.034
				c-0.447-0.012-0.641-0.18-0.693-0.632c-0.172-1.521-0.34-3.041-0.512-4.561c-0.275-2.468-0.553-4.934-0.828-7.399
				c-0.09-0.795-0.178-1.591-0.26-2.386c-0.049-0.471,0.076-0.607,0.555-0.603c2.918,0.039,5.836,0.082,8.754,0.123
				c2.289,0.031,4.578,0.063,6.869,0.094c0.779,0.011,1.561,0.044,2.34,0.023c0.363-0.01,0.615,0.162,0.865,0.363
				c0.191,0.153,0.395,0.209,0.641,0.211c1.471,0.01,2.938,0.041,4.408,0.057c0.234,0.003,0.346,0.08,0.371,0.326
				c0.303,2.739,0.611,5.477,0.92,8.215c0.223,1.963,0.445,3.925,0.664,5.888c0.053,0.467-0.113,0.639-0.572,0.631
				c-2.277-0.037-4.559-0.083-6.838-0.106c-1.641-0.017-3.281-0.003-4.924-0.003C19.063,491.765,19.063,491.742,19.063,491.718z"/>
			<path fill="#CDCCCC" d="M32.84,490.5c-0.08-0.694-0.158-1.389-0.236-2.085c-0.324-2.857-0.646-5.716-0.967-8.573
				c-0.121-1.084-0.244-2.169-0.357-3.254c-0.064-0.619-0.152-0.717-0.771-0.728c-1.488-0.028-2.975-0.062-4.463-0.063
				c-0.373-0.001-0.691-0.067-0.965-0.324c-0.256-0.241-0.563-0.302-0.906-0.306c-2.182-0.018-4.363-0.045-6.545-0.076
				c-3.658-0.053-7.316-0.108-10.975-0.166c-0.064,0-0.129-0.012-0.189-0.018c-0.129-0.76,0.18-1.129,0.918-1.119
				c2.246,0.03,4.494,0.059,6.742,0.09c4.453,0.063,8.904,0.125,13.357,0.196c0.234,0.003,0.336-0.083,0.396-0.294
				c0.227-0.785,0.23-0.789,1.064-0.78c1.477,0.017,2.953,0.038,4.43,0.061c0.395,0.006,0.479,0.105,0.459,0.503
				c-0.24,4.423-0.477,8.847-0.719,13.269c-0.066,1.221-0.141,2.441-0.211,3.662C32.881,490.496,32.859,490.498,32.84,490.5z"/>
		</g>
		<g>
			<path fill="#FFFFFF" d="M14.008,482.837h2.619v-2.632h2.207v2.632h2.633v2.208h-2.633v2.618h-2.207v-2.618h-2.619V482.837z"/>
		</g>
	</g>
	<polygon fill="#242424" points="28,418.775 12.094,409.962 28,401.146 	"/>
</g>
<g>
	<polygon fill="#333333" points="26.47,394.398 17.488,394.398 17.488,381.031 4.016,381.031 4,376.199 40,376.199 39.978,381.031 
		26.47,381.031 	"/>
	<polygon fill="#575554" points="17.53,358 26.512,358 26.512,371.367 39.984,371.367 40,376.199 4,376.199 4.022,371.367 
		17.53,371.367 	"/>
</g>
<g>
	<g>
		<path fill="#333333" d="M227.473,0v-13.367H214v-9.227h13.473v-13.367h8.981v13.367h13.508v9.227h-13.508V0H227.473z"/>
	</g>
</g>
<g>
	<path fill="#333333" d="M196.624-80.713c-4.349-0.057-8.696-0.112-13.044-0.17c-0.529-0.008-1.059-0.028-1.588-0.042
		c-0.557-0.015-0.797-0.224-0.861-0.786c-0.215-1.891-0.424-3.783-0.637-5.674c-0.344-3.068-0.688-6.136-1.031-9.205
		c-0.111-0.988-0.221-1.979-0.322-2.968c-0.062-0.584,0.094-0.755,0.691-0.747c3.63,0.048,7.259,0.102,10.889,0.152
		c2.85,0.039,5.696,0.076,8.545,0.115c0.971,0.014,1.941,0.055,2.911,0.029c0.452-0.012,0.765,0.202,1.077,0.453
		c0.239,0.191,0.49,0.26,0.798,0.262c1.827,0.014,3.654,0.053,5.481,0.071c0.293,0.003,0.43,0.099,0.463,0.405
		c0.375,3.408,0.762,6.813,1.145,10.22c0.275,2.442,0.555,4.883,0.826,7.325c0.064,0.578-0.143,0.793-0.711,0.783
		c-2.836-0.047-5.671-0.104-8.508-0.133c-2.04-0.02-4.082-0.004-6.124-0.004C196.624-80.654,196.624-80.684,196.624-80.713z"/>
	<path fill="#333333" d="M213.762-82.228c-0.099-0.864-0.197-1.729-0.295-2.595c-0.4-3.555-0.803-7.109-1.201-10.666
		c-0.152-1.348-0.304-2.697-0.445-4.047c-0.079-0.771-0.188-0.893-0.959-0.906c-1.851-0.033-3.7-0.074-5.553-0.077
		c-0.465-0.001-0.86-0.085-1.197-0.403c-0.319-0.301-0.7-0.376-1.129-0.379c-2.715-0.023-5.43-0.057-8.145-0.096
		c-4.551-0.065-9.102-0.137-13.652-0.206c-0.08-0.001-0.16-0.016-0.234-0.022c-0.161-0.945,0.224-1.405,1.142-1.393
		c2.796,0.037,5.593,0.072,8.39,0.111c5.539,0.078,11.076,0.156,16.615,0.244c0.293,0.005,0.418-0.102,0.493-0.365
		c0.282-0.977,0.287-0.981,1.325-0.971c1.837,0.021,3.675,0.048,5.512,0.074c0.489,0.008,0.596,0.133,0.569,0.626
		c-0.3,5.503-0.595,11.005-0.894,16.507c-0.082,1.518-0.176,3.036-0.264,4.555C213.814-82.232,213.787-82.23,213.762-82.228z"/>
</g>
<g>
	<g>
		<path fill="#FFFFFF" d="M57.958-81.127c1.007-1.428,2.301-2.333,4.046-2.503c1.488-0.146,2.863,0.28,4.17,0.937
			c1.838,0.924,3.516,2.08,4.811,3.699c1.394,1.742,1.97,3.673,1.086,5.85c-0.148,0.369-0.354,0.715-0.557,1.115
			C66.988-75.066,62.494-78.082,57.958-81.127z"/>
		<path fill="#FFFFFF" d="M70.613-90.629c1.191,1.334,2.273,2.315,4.863,3.264c-0.715,1.141-1.429,2.271-2.136,3.404
			c-0.698,1.124-1.396,2.251-2.125,3.429c-1.481-1.618-3.231-2.829-5.321-3.574C67.469-86.283,69.029-88.441,70.613-90.629z"/>
		<path fill="#FFFFFF" d="M79.59-89.732c-0.574,0.863-1.346,1.332-2.322,1.134c-0.854-0.173-1.711-0.46-2.49-0.849
			c-1.282-0.639-2.44-1.484-3.314-2.65c-0.829-1.106-0.882-2.135-0.181-3.211C74.037-93.458,76.793-91.608,79.59-89.732z"/>
	</g>
	<path fill="#FFFFFF" d="M63.676-75.235c-0.455-0.307-1.052-0.166-1.322,0.313L55.988-63.68c-0.271,0.479-0.215,0.517,0.125,0.085
		l7.992-10.15c0.342-0.432,0.246-1.036-0.211-1.343L63.676-75.235z"/>
</g>
<g>
	<g>
		<path d="M31.958,507.873c1.007-1.428,2.301-2.333,4.046-2.503c1.488-0.146,2.863,0.28,4.17,0.937
			c1.838,0.925,3.516,2.08,4.811,3.699c1.394,1.742,1.97,3.673,1.086,5.851c-0.148,0.368-0.354,0.715-0.557,1.114
			C40.988,513.933,36.494,510.918,31.958,507.873z"/>
		<path d="M44.613,498.371c1.191,1.334,2.273,2.314,4.863,3.264c-0.715,1.142-1.429,2.271-2.136,3.404
			c-0.698,1.124-1.396,2.251-2.125,3.429c-1.481-1.618-3.231-2.829-5.322-3.574C41.469,502.717,43.029,500.558,44.613,498.371z"/>
		<path d="M53.59,499.267c-0.574,0.863-1.346,1.332-2.322,1.135c-0.854-0.174-1.711-0.46-2.49-0.85
			c-1.282-0.639-2.44-1.483-3.314-2.649c-0.829-1.106-0.882-2.136-0.181-3.211C48.037,495.542,50.793,497.391,53.59,499.267z"/>
	</g>
	<polygon points="36.846,513.207 29.494,526.189 38.725,514.469 	"/>
</g>
<g>
	<path fill="#FFFFFF" d="M59.496,448.775c-4.35-0.058-8.696-0.112-13.044-0.17c-0.529-0.009-1.06-0.028-1.589-0.043
		c-0.557-0.015-0.797-0.224-0.86-0.785c-0.215-1.892-0.424-3.783-0.637-5.675c-0.345-3.067-0.688-6.136-1.031-9.204
		c-0.11-0.988-0.222-1.979-0.323-2.969c-0.061-0.584,0.096-0.755,0.692-0.747c3.63,0.049,7.259,0.103,10.889,0.152
		c2.849,0.039,5.696,0.076,8.546,0.115c0.971,0.014,1.94,0.055,2.91,0.028c0.452-0.012,0.766,0.202,1.077,0.453
		c0.239,0.191,0.49,0.261,0.798,0.263c1.827,0.014,3.654,0.053,5.48,0.07c0.294,0.003,0.431,0.1,0.464,0.405
		c0.375,3.408,0.762,6.813,1.146,10.22c0.274,2.442,0.553,4.884,0.825,7.325c0.063,0.578-0.144,0.793-0.711,0.783
		c-2.836-0.047-5.671-0.104-8.508-0.133c-2.04-0.021-4.082-0.004-6.124-0.004C59.496,448.834,59.496,448.804,59.496,448.775z"/>
	<path fill="#FFFFFF" d="M76.634,447.261c-0.099-0.864-0.196-1.729-0.295-2.595c-0.399-3.555-0.803-7.109-1.2-10.666
		c-0.152-1.348-0.305-2.697-0.445-4.047c-0.08-0.771-0.188-0.894-0.959-0.906c-1.852-0.033-3.701-0.074-5.553-0.077
		c-0.466-0.001-0.861-0.085-1.199-0.402c-0.318-0.302-0.699-0.376-1.127-0.38c-2.715-0.022-5.431-0.057-8.146-0.096
		c-4.551-0.064-9.103-0.137-13.651-0.206c-0.08-0.001-0.16-0.016-0.235-0.021c-0.161-0.945,0.224-1.405,1.142-1.394
		c2.797,0.037,5.592,0.072,8.391,0.111c5.537,0.078,11.076,0.156,16.613,0.244c0.293,0.005,0.418-0.103,0.494-0.365
		c0.282-0.977,0.287-0.98,1.325-0.971c1.837,0.021,3.675,0.048,5.512,0.074c0.489,0.008,0.597,0.133,0.569,0.626
		c-0.299,5.503-0.594,11.005-0.893,16.507c-0.084,1.518-0.177,3.036-0.265,4.555C76.687,447.256,76.659,447.258,76.634,447.261z"/>
</g>
<g>
	<path fill-rule="evenodd" clip-rule="evenodd" fill="#333333" d="M56.133,3.512c4.189,0.075,7.527,1.498,10.385,4.097
		c0.857,0.78,1.623,1.648,2.281,2.604c0.063,0.091,0.092,0.281,0.039,0.366c-1.92,3.084-4.463,5.46-7.898,6.758
		c-4.064,1.537-7.906,0.953-11.523-1.364c-2.182-1.399-3.959-3.218-5.451-5.329c-0.105-0.15-0.109-0.251,0.004-0.399
		c2.584-3.427,5.887-5.744,10.168-6.518C54.891,3.59,55.666,3.56,56.133,3.512z M46.529,10.493c1.398,1.711,3.008,3.151,4.943,4.201
		c2.936,1.591,5.961,1.78,9.051,0.502c2.078-0.859,3.771-2.241,5.215-3.946c0.207-0.245,0.398-0.5,0.592-0.743
		C60.871,4.162,52.182,3.999,46.529,10.493z"/>
	<path fill-rule="evenodd" clip-rule="evenodd" fill="#333333" d="M60.453,10.742c0,2.335-1.881,4.215-4.219,4.216
		c-2.342,0.001-4.248-1.902-4.246-4.235c0.004-2.336,1.906-4.232,4.252-4.23C58.586,6.494,60.453,8.378,60.453,10.742z"/>
</g>
<g>
	<path fill="#333333" d="M65.216,27.939c0.537-0.536,0.521-1.418-0.031-1.972l-4.813-4.812c-0.549-0.553-1.436-0.568-1.969-0.032
		l-1.477,1.473l6.816,6.815L65.216,27.939z"/>
	<path fill="#333333" d="M46.831,39.559c0.105-0.014,1.816-0.215,3.59-0.427l-3.164-3.164
		C47.046,37.746,46.845,39.454,46.831,39.559z"/>
	<path fill="#333333" d="M51.12,32.602l6.461-6.461l-2.051-2.039c-0.113,0.112-6.418,6.416-6.67,6.67
		C49.946,30.892,51.001,31.518,51.12,32.602z"/>
	<path fill="#333333" d="M53.454,34.928l6.389-6.446l-1.871-1.87c-0.641,0.642-6.148,6.086-6.385,6.327
		c0.523,0.056,0.801,0.387,1.186,0.77C53.155,34.093,53.395,34.405,53.454,34.928z"/>
	<path fill="#333333" d="M52.936,35.81l-0.119,0.011l-0.006-0.103c-0.016-0.571-0.25-1.115-0.664-1.528
		c-0.412-0.413-0.953-0.648-1.527-0.663l-0.088,0.007l-0.002-0.13c-0.047-1.138-0.979-2.083-2.113-2.152
		c-0.043,0.375-0.244,2.068-0.443,3.76l3.354,3.352c1.691-0.199,3.385-0.399,3.76-0.444c-0.031-0.544-0.266-1.056-0.66-1.45
		C54.024,36.065,53.495,35.832,52.936,35.81z"/>
	<path fill="#333333" d="M53.802,35.251c0.537,0.059,0.852,0.331,1.24,0.718c0.391,0.391,0.576,0.872,0.637,1.406l6.621-6.622
		l-1.971-1.971L53.802,35.251z"/>
</g>
<g>
	<path fill-rule="evenodd" clip-rule="evenodd" fill="#333333" d="M49.412,48.853c3.813,0,7.563,0,11.385,0c0,0.921,0,1.792,0,2.663
		c0,3.087,0.004,6.174-0.002,9.262c-0.002,1.536-0.574,2.123-2.082,2.126c-2.492,0.006-4.984,0.012-7.477-0.003
		c-1.211-0.008-1.877-0.632-1.883-1.813c-0.02-3.937-0.006-7.874-0.004-11.81C49.35,49.168,49.381,49.057,49.412,48.853z
		 M59.047,55.819c0-1.44,0.002-2.881,0-4.321c-0.002-0.457,0.041-0.997-0.592-1.023c-0.646-0.026-0.643,0.51-0.645,0.971
		c-0.004,2.938-0.004,5.874,0.002,8.812c0,0.423-0.027,0.926,0.582,0.937c0.652,0.011,0.646-0.51,0.648-0.971
		C59.051,58.756,59.045,57.287,59.047,55.819z M52.355,55.846c0-1.496,0.029-2.994-0.025-4.488
		c-0.012-0.305-0.293-0.809-0.523-0.855c-0.551-0.112-0.674,0.371-0.674,0.831c-0.004,2.993-0.004,5.986-0.002,8.979
		c0.002,0.448,0.072,0.955,0.643,0.85c0.236-0.043,0.543-0.532,0.555-0.828C52.385,58.841,52.353,57.343,52.355,55.846z
		 M55.699,55.847c0-1.469-0.006-2.938,0.004-4.407c0-0.478-0.012-1.023-0.633-0.936c-0.234,0.033-0.557,0.592-0.563,0.916
		c-0.043,2.937-0.025,5.875-0.025,8.812c0,0.461-0.033,0.986,0.635,0.961c0.592-0.022,0.582-0.503,0.582-0.94
		C55.699,58.784,55.699,57.316,55.699,55.847z"/>
	<path fill-rule="evenodd" clip-rule="evenodd" fill="#333333" d="M61.736,48.129c-4.434,0-8.865,0-13.295,0
		c-0.078-1.102,0.705-2.049,1.854-2.064c3.201-0.041,6.402-0.041,9.602,0.003C60.992,46.082,61.717,46.964,61.736,48.129z"/>
	<path fill-rule="evenodd" clip-rule="evenodd" fill="#333333" d="M52.924,45.317c0.125-0.797,0.629-0.958,1.285-0.969
		c2.656-0.044,2.674-0.045,2.994,0.969C55.793,45.317,54.404,45.317,52.924,45.317z"/>
</g>
</svg>
