<?xml version="1.0" encoding="utf-8"?>
<!-- Generator: Adobe Illustrator 16.0.0, SVG Export Plug-In . SVG Version: 6.00 Build 0)  -->
<!DOCTYPE svg PUBLIC "-//W3C//DTD SVG 1.1//EN" "http://www.w3.org/Graphics/SVG/1.1/DTD/svg11.dtd">
<svg version="1.1" id="Layer_1" xmlns="http://www.w3.org/2000/svg" xmlns:xlink="http://www.w3.org/1999/xlink" x="0px" y="0px"
	 width="215px" height="50px" viewBox="0 0 215 50" enable-background="new 0 0 215 50" xml:space="preserve">
<g>
	<path fill="#ED1C24" d="M244.923-193.183l2.043,6.304l6.638-0.015l-5.383,3.905l2.072,6.296l-5.369-3.899l-5.347,3.899l2.057-6.296
		l-5.368-3.905l6.631,0.015L244.923-193.183L244.923-193.183z M262.277-193.183l2.036,6.304l6.645-0.015l-5.383,3.905l2.071,6.296
		l-5.368-3.899l-5.355,3.899l2.065-6.296l-5.376-3.905l6.63,0.015L262.277-193.183L262.277-193.183z M262.277-176.68l2.036,6.302
		l6.645-0.013l-5.383,3.897l2.071,6.31l-5.368-3.913l-5.355,3.913l2.065-6.31l-5.376-3.897l6.63,0.013L262.277-176.68
		L262.277-176.68z M262.277-209.644l2.036,6.317l6.645-0.014l-5.383,3.89l2.071,6.31l-5.368-3.919l-5.355,3.919l2.065-6.31
		l-5.376-3.89l6.63,0.014L262.277-209.644L262.277-209.644z M279.63-193.183l2.035,6.304l6.646-0.015l-5.382,3.905l2.057,6.296
		l-5.355-3.899l-5.354,3.899l2.063-6.296l-5.375-3.905l6.629,0.015L279.63-193.183L279.63-193.183z M279.63-226.146l2.035,6.303
		l6.646-0.007l-5.382,3.904l2.057,6.302l-5.355-3.918l-5.354,3.918l2.063-6.302l-5.375-3.904l6.629,0.007L279.63-226.146
		L279.63-226.146z M296.977-193.183l2.042,6.304l6.631-0.015l-5.368,3.905l2.056,6.296l-5.36-3.899l-5.355,3.899l2.058-6.296
		l-5.368-3.905l6.637,0.015L296.977-193.183L296.977-193.183z M314.33-193.183l2.034,6.304l6.639-0.015l-5.376,3.905l2.064,6.296
		l-5.361-3.899l-5.354,3.899l2.057-6.296l-5.376-3.905l6.631,0.015L314.33-193.183L314.33-193.183z M279.63-176.68l2.035,6.302
		l6.646-0.013l-5.382,3.897l2.057,6.31l-5.355-3.913l-5.354,3.913l2.063-6.31l-5.375-3.897l6.629,0.013L279.63-176.68L279.63-176.68
		z M279.63-209.644l2.035,6.317l6.646-0.014l-5.382,3.89l2.057,6.31l-5.355-3.919l-5.354,3.919l2.063-6.31l-5.375-3.89l6.629,0.014
		L279.63-209.644L279.63-209.644z M314.33-176.68l2.034,6.302l6.639-0.013l-5.376,3.897l2.064,6.31l-5.361-3.913l-5.354,3.913
		l2.057-6.31l-5.376-3.897l6.631,0.013L314.33-176.68L314.33-176.68z M314.33-209.644l2.034,6.317l6.639-0.014l-5.376,3.89
		l2.064,6.31l-5.361-3.919l-5.354,3.919l2.057-6.31l-5.376-3.89l6.631,0.014L314.33-209.644L314.33-209.644z M279.63-160.184
		l2.035,6.316l6.646-0.006l-5.382,3.881l2.057,6.304l-5.355-3.912l-5.354,3.912l2.063-6.304l-5.375-3.881l6.629,0.006
		L279.63-160.184L279.63-160.184z"/>
	<path fill="#ED1C24" d="M-44.944-205.621v16.217h11.545v3.772h-11.545v32.063c0,3.208,0.453,5.355,1.38,6.464
		c0.899,1.122,2.078,1.665,3.513,1.665c1.207,0,2.337-0.356,3.465-1.102c1.108-0.738,1.973-1.817,2.594-3.249h2.105
		c-1.275,3.515-3.046,6.157-5.347,7.942c-2.301,1.792-4.679,2.676-7.125,2.676c-1.66,0-3.277-0.467-4.859-1.379
		c-1.583-0.928-2.74-2.231-3.494-3.948c-0.759-1.693-1.144-4.321-1.144-7.898v-33.235h-7.808v-1.764
		c1.966-0.789,3.995-2.135,6.051-4.01c2.071-1.902,3.926-4.148,5.529-6.719c0.83-1.368,1.987-3.871,3.458-7.497H-44.944
		L-44.944-205.621z"/>
	<path fill="#ED1C24" d="M-0.17-147.118c-5.062,3.926-8.255,6.198-9.565,6.805c-1.925,0.899-3.996,1.36-6.184,1.36
		c-3.424,0-6.24-1.178-8.458-3.522c-2.203-2.328-3.304-5.402-3.304-9.215c0-2.42,0.536-4.492,1.624-6.275
		c3.646-5.982,20.567-20.247,25.825-23.307c0-1.416-1.088-2.148-2.281-3.557c-1.555-1.827-3.849-2.734-6.825-2.734
		c-2.273,0-4.079,0.601-5.396,1.848c-1.374,1.205-2.043,2.602-2.043,4.198l0.105,3.123c0,1.668-0.426,2.934-1.27,3.833
		c-0.85,0.901-1.951,1.332-3.318,1.332c-1.338,0-2.434-0.451-3.276-1.393c-0.852-0.934-1.27-2.211-1.27-3.82
		c0-3.103,1.583-5.94,4.755-8.534c3.166-2.571,7.599-3.884,13.323-3.884c4.385,0,7.976,0.74,10.799,2.211
		c2.113,1.122,3.682,2.872,4.692,5.242c0.642,1.555,0.962,4.699,0.962,9.49v16.767c0,4.72,0.084,7.614,0.271,8.681
		c0.188,1.046,0.481,1.764,0.893,2.119c0.418,0.37,0.893,0.551,1.429,0.551c0.565,0,1.081-0.126,1.506-0.39
		c0.76-0.454,2.216-1.792,4.364-3.939v3.012c-4.009,5.395-7.858,8.107-11.545,8.107c-1.751,0-3.152-0.599-4.204-1.84
		C0.395-142.064-0.135-144.162-0.17-147.118L-0.17-147.118z M-0.17-150.605l-0.062-26.738c-5.466,4.832-18.386,14.969-18.386,23.134
		c0,2.565,0.768,4.726,2.308,6.441c1.555,1.694,3.34,2.553,5.348,2.553C-8.216-145.215-4.625-147.013-0.17-150.605L-0.17-150.605z"
		/>
	<path fill="#ED1C24" d="M35.003-190.862l-0.119,9.54c4.128-7.419,8.498-9.54,12.835-9.54c1.98,0,3.618,0.609,4.922,1.801
		c1.29,1.226,1.931,2.621,1.931,4.19c0,1.408-0.46,2.586-1.401,3.575c-0.933,0.971-2.042,1.444-3.353,1.444
		c-1.249,0-2.665-0.621-4.232-1.854c-1.569-1.236-2.727-1.863-3.479-1.863c-2.406,0-6.233,4.714-7.104,6.444v25.594
		c0,2.725,0.328,4.81,1.011,6.203c0.473,0.978,1.304,1.787,2.481,2.434c1.199,0.642,2.9,0.976,5.118,0.976v1.932H18.313v-1.932
		c2.53,0,4.406-0.409,5.619-1.198c0.899-0.572,1.526-1.492,1.904-2.74c0.16-0.627,0.25-2.356,0.25-5.249
		c0-7.12,0.091-18.65-0.14-19.752c-0.223-1.088-0.655-1.897-1.29-2.391c-0.621-0.509-1.422-0.754-2.356-0.754
		c-1.102,0-2.357,0.272-3.78,0.795l-0.522-1.945l14.739-15.71H35.003L35.003-190.862z"/>
	<path fill="#ED1C24" d="M75.608-185.521v32.483c0,4.603,0.509,7.515,1.505,8.751c1.353,1.575,3.117,2.368,5.34,2.368h4.497v1.932
		H57.432v-1.932h2.21c1.436,0,2.762-0.375,3.94-1.086c1.185-0.718,2.008-1.696,2.447-2.915c0.466-1.233,0.683-3.604,0.683-7.118
		v-32.483h-9.607v-3.883h9.607v-3.229c0-4.93,0.794-9.118,2.371-12.522c1.589-3.422,4.002-6.184,7.257-8.282
		c3.263-2.099,6.909-3.159,10.981-3.159c3.765,0,9.475,2.148,12.64,4.601c2.084,1.625,3.11,3.445,3.11,5.459
		c0,1.082-0.46,2.092-1.395,3.033c-0.941,0.955-1.938,1.442-3.026,1.442c-0.823,0-1.694-0.293-2.614-0.884
		c-0.914-0.594-2.043-1.876-3.367-3.842c-1.332-1.96-4.77-4.218-5.892-4.908c-1.108-0.691-2.349-1.019-3.708-1.019
		c-1.66,0-3.061,0.446-4.226,1.339c-1.143,0.865-1.966,2.245-2.475,4.085c-0.502,1.862-0.76,6.624-0.76,14.328v3.556h12.738
		l-3.542,3.849L75.608-185.521L75.608-185.521z"/>
	<path fill="#ED1C24" d="M105.1-190.862v39.722c0,3.087,0.208,5.136,0.669,6.154c0.446,1.047,1.102,1.793,1.988,2.315
		c0.891,0.496,2.509,0.752,4.838,0.752v1.932H88.597v-1.932c2.406,0,4.03-0.235,4.838-0.715c0.83-0.456,1.492-1.236,1.973-2.315
		c0.495-1.068,0.738-3.139,0.732-6.191l-0.034-19.607c0-1.187-0.663-1.974-1.193-2.417c-0.543-0.461-1.269-0.678-2.21-0.678
		c-1.011,0-2.23,0.272-3.66,0.815l-0.76-1.967l14.432-15.868H105.1L105.1-190.862z"/>
	<path fill="#ED1C24" d="M122.3-150.443c1.701,0,3.116,0.578,4.253,1.749c1.164,1.159,1.735,2.58,1.735,4.231
		c0,1.661-0.592,3.061-1.75,4.232c-1.158,1.172-2.573,1.758-4.239,1.758c-1.652,0-3.068-0.585-4.226-1.758
		c-1.164-1.171-1.75-2.571-1.75-4.232c0-1.693,0.586-3.108,1.75-4.266C119.232-149.866,120.647-150.443,122.3-150.443L122.3-150.443
		z"/>
	<path fill="#ED1C24" d="M160.75-190.847v16.817h-1.777c-1.368-5.279-3.117-8.877-5.251-10.787
		c-2.147-1.896-4.879-2.851-8.178-2.851c-2.517,0-4.546,0.655-6.094,2.001c-1.54,1.332-2.321,2.801-2.321,4.419
		c0,2.01,0.572,3.737,1.715,5.182c1.123,1.469,3.389,3.038,6.813,4.683l7.864,3.829c7.3,3.557,10.959,8.263,10.959,14.098
		c0,4.489-1.701,8.093-5.11,10.855c-3.381,2.741-7.195,4.127-11.392,4.127c-3.033,0-6.483-0.538-10.361-1.616
		c-1.191-0.351-2.154-0.533-2.92-0.533c-0.823,0-1.464,0.456-1.946,1.397h-1.764v-17.64h1.764c1.011,5.02,2.949,8.812,5.787,11.377
		c2.831,2.558,6.017,3.829,9.531,3.829c2.489,0,4.518-0.711,6.08-2.178c1.569-1.477,2.336-3.213,2.336-5.269
		c0-2.475-0.865-4.568-2.614-6.248c-1.73-1.694-5.215-3.827-10.438-6.435c-5.215-2.58-8.618-4.915-10.235-7
		c-1.625-2.056-2.434-4.637-2.434-7.759c0-4.071,1.395-7.48,4.176-10.207c2.782-2.719,6.387-4.093,10.807-4.093
		c1.952,0,4.315,0.417,7.076,1.24c1.833,0.532,3.055,0.816,3.661,0.816c0.592,0,1.024-0.131,1.373-0.398
		c0.307-0.243,0.684-0.794,1.117-1.659H160.75L160.75-190.847z"/>
	<path fill="#ED1C24" d="M178.424-216.692l0.083,40.946c2.985-6.4,7.425-15.116,16.427-15.116c2.788,0,5.208,0.775,7.23,2.323
		c2.014,1.542,3.499,3.975,4.476,7.292c0.689,2.294,1.018,6.505,1.018,12.605v17.502c0,3.114,0.258,5.263,0.767,6.406
		c0.355,0.865,0.961,1.542,1.826,2.063c0.865,0.496,2.447,0.752,4.749,0.752v1.932h-24.27v-1.932h1.13
		c2.3,0,3.904-0.375,4.803-1.065c0.899-0.705,1.527-1.735,1.876-3.09c0.111-0.571,0.16-2.272,0.16-5.066v-17.502
		c0-5.388-0.272-8.932-0.83-10.618c-0.564-1.694-1.45-2.954-2.663-3.792c-7.048-4.874-14.788,9.265-16.782,13.993v17.919
		c0,3.372,0.174,5.472,0.558,6.294c0.377,0.83,1.081,1.534,2.12,2.085c1.01,0.543,2.774,0.842,5.305,0.842v1.932h-24.493v-1.932
		c2.182,0,3.927-0.348,5.167-1.024c0.718-0.369,1.317-1.054,1.736-2.049c0.446-1.012,0.648-3.061,0.648-6.148v-44.734
		c0-1.742,0.215-3.305-0.928-4.204c-0.564-0.461-1.304-0.699-2.246-0.699c-0.753,0-1.966,0.273-3.667,0.865l-0.754-1.896
		l14.07-14.885H178.424L178.424-216.692z"/>
	<path fill="#ED1C24" d="M-70.232-216.378v25.872h-2.036c-0.676-4.97-1.861-8.923-3.549-11.858
		c-1.716-2.964-4.162-5.292-7.328-7.007c-3.165-1.729-6.422-2.607-9.81-2.607c-3.82,0-6.986,1.179-9.488,3.507
		c-2.511,2.329-3.744,4.985-3.744,7.969c0,2.274,0.788,4.372,2.363,6.232c2.287,2.771,7.704,6.444,16.265,11.039
		c6.994,3.743,11.776,6.624,14.321,8.636c2.558,2.001,4.532,4.366,5.905,7.079c1.38,2.724,2.078,5.57,2.078,8.541
		c0,5.682-2.21,10.553-6.596,14.655c-4.399,4.105-10.054,6.154-16.97,6.154c-2.182,0-4.21-0.158-6.128-0.5
		c-1.136-0.182-3.507-0.86-7.083-2.001c-3.577-1.166-5.85-1.758-6.812-1.758c-0.927,0-1.646,0.287-2.183,0.838
		c-0.53,0.543-0.927,1.695-1.191,3.422h-2.029v-25.649h2.029c0.969,5.376,2.258,9.386,3.876,12.061
		c1.618,2.65,4.085,4.875,7.418,6.639c3.326,1.756,6.972,2.641,10.939,2.641c4.595,0,8.234-1.213,10.904-3.639
		c2.65-2.42,3.995-5.286,3.995-8.603c0-1.841-0.515-3.689-1.506-5.564c-1.017-1.89-2.601-3.612-4.728-5.25
		c-1.429-1.11-5.354-3.437-11.747-7.029c-6.407-3.575-10.939-6.439-13.658-8.568c-2.706-2.141-4.735-4.503-6.157-7.071
		c-1.387-2.579-2.084-5.417-2.084-8.498c0-5.368,2.05-9.983,6.177-13.867c4.121-3.87,9.357-5.814,15.723-5.814
		c3.967,0,8.185,0.955,12.626,2.921c2.063,0.927,3.521,1.374,4.357,1.374c0.955,0,1.75-0.286,2.343-0.844
		c0.606-0.593,1.101-1.736,1.471-3.451H-70.232L-70.232-216.378z"/>
</g>
<g>
	<path fill="#ED1C24" d="M175.283,19.934l0.968,2.989l3.146-0.007l-2.552,1.851l0.982,2.984l-2.545-1.848l-2.535,1.848l0.975-2.984
		l-2.545-1.851l3.143,0.007L175.283,19.934L175.283,19.934z M183.51,19.934l0.964,2.989l3.15-0.007l-2.552,1.851l0.981,2.984
		l-2.544-1.848l-2.539,1.848l0.979-2.984l-2.548-1.851l3.143,0.007L183.51,19.934L183.51,19.934z M183.51,27.757l0.964,2.987
		l3.15-0.006l-2.552,1.847l0.981,2.991l-2.544-1.854l-2.539,1.854l0.979-2.991l-2.548-1.847l3.143,0.006L183.51,27.757
		L183.51,27.757z M183.51,12.131l0.964,2.995l3.15-0.007l-2.552,1.844l0.981,2.991l-2.544-1.858l-2.539,1.858l0.979-2.991
		l-2.548-1.844l3.143,0.007L183.51,12.131L183.51,12.131z M191.735,19.934l0.965,2.989l3.15-0.007l-2.551,1.851l0.975,2.984
		l-2.539-1.848l-2.538,1.848l0.978-2.984l-2.547-1.851l3.142,0.007L191.735,19.934L191.735,19.934z M191.735,4.308l0.965,2.988
		l3.15-0.003l-2.551,1.851l0.975,2.988l-2.539-1.857l-2.538,1.857l0.978-2.988l-2.547-1.851l3.142,0.003L191.735,4.308
		L191.735,4.308z M199.958,19.934l0.968,2.989l3.143-0.007l-2.545,1.851l0.975,2.984l-2.541-1.848l-2.539,1.848l0.976-2.984
		l-2.545-1.851l3.146,0.007L199.958,19.934L199.958,19.934z M208.184,19.934l0.964,2.989l3.147-0.007l-2.548,1.851l0.979,2.984
		l-2.542-1.848l-2.538,1.848l0.975-2.984l-2.548-1.851l3.143,0.007L208.184,19.934L208.184,19.934z M191.735,27.757l0.965,2.987
		l3.15-0.006l-2.551,1.847l0.975,2.991l-2.539-1.854l-2.538,1.854l0.978-2.991l-2.547-1.847l3.142,0.006L191.735,27.757
		L191.735,27.757z M191.735,12.131l0.965,2.995l3.15-0.007l-2.551,1.844l0.975,2.991l-2.539-1.858l-2.538,1.858l0.978-2.991
		l-2.547-1.844l3.142,0.007L191.735,12.131L191.735,12.131z M208.184,27.757l0.964,2.987l3.147-0.006l-2.548,1.847l0.979,2.991
		l-2.542-1.854l-2.538,1.854l0.975-2.991l-2.548-1.847l3.143,0.006L208.184,27.757L208.184,27.757z M208.184,12.131l0.964,2.995
		l3.147-0.007l-2.548,1.844l0.979,2.991l-2.542-1.858l-2.538,1.858l0.975-2.991l-2.548-1.844l3.143,0.007L208.184,12.131
		L208.184,12.131z M191.735,35.576l0.965,2.994l3.15-0.003l-2.551,1.84l0.975,2.989l-2.539-1.855l-2.538,1.855l0.978-2.989
		l-2.547-1.84l3.142,0.003L191.735,35.576L191.735,35.576z"/>
	<path fill="#ED1C24" d="M37.877,14.038v7.688h5.473v1.789h-5.473v15.199c0,1.521,0.214,2.539,0.654,3.064
		c0.426,0.533,0.985,0.79,1.665,0.79c0.572,0,1.108-0.169,1.643-0.523c0.525-0.349,0.935-0.861,1.229-1.54h0.998
		c-0.605,1.667-1.444,2.918-2.535,3.765c-1.091,0.849-2.218,1.269-3.378,1.269c-0.787,0-1.554-0.222-2.304-0.653
		c-0.75-0.44-1.298-1.058-1.656-1.872c-0.36-0.802-0.542-2.048-0.542-3.743V23.514h-3.702v-0.836
		c0.932-0.374,1.894-1.012,2.869-1.901c0.982-0.901,1.861-1.966,2.621-3.185c0.394-0.648,0.942-1.834,1.64-3.554H37.877
		L37.877,14.038z"/>
	<path fill="#ED1C24" d="M59.101,41.77c-2.399,1.861-3.913,2.937-4.534,3.226c-0.913,0.426-1.894,0.645-2.932,0.645
		c-1.623,0-2.958-0.559-4.009-1.67c-1.044-1.104-1.566-2.561-1.566-4.369c0-1.147,0.254-2.129,0.77-2.975
		c1.729-2.836,9.749-9.598,12.242-11.048c0-0.671-0.516-1.019-1.082-1.686c-0.737-0.866-1.824-1.296-3.235-1.296
		c-1.078,0-1.934,0.285-2.558,0.876c-0.651,0.571-0.969,1.233-0.969,1.99l0.05,1.48c0,0.791-0.202,1.391-0.602,1.817
		c-0.403,0.427-0.925,0.631-1.573,0.631c-0.634,0-1.153-0.213-1.553-0.661c-0.403-0.442-0.602-1.048-0.602-1.811
		c0-1.471,0.75-2.816,2.254-4.046c1.501-1.219,3.603-1.841,6.316-1.841c2.079,0,3.781,0.351,5.119,1.048
		c1.002,0.532,1.745,1.361,2.224,2.485c0.304,0.737,0.456,2.228,0.456,4.498v7.949c0,2.237,0.04,3.609,0.129,4.114
		c0.089,0.496,0.228,0.836,0.423,1.004c0.198,0.176,0.423,0.262,0.677,0.262c0.268,0,0.512-0.06,0.714-0.185
		c0.36-0.216,1.05-0.85,2.069-1.868v1.428c-1.901,2.557-3.725,3.843-5.473,3.843c-0.83,0-1.494-0.284-1.993-0.873
		C59.369,44.166,59.118,43.171,59.101,41.77L59.101,41.77z M59.101,40.117l-0.029-12.674c-2.591,2.291-8.716,7.096-8.716,10.966
		c0,1.217,0.364,2.241,1.094,3.054c0.737,0.803,1.583,1.21,2.535,1.21C55.287,42.672,56.989,41.82,59.101,40.117L59.101,40.117z"/>
	<path fill="#ED1C24" d="M75.774,21.034l-0.056,4.522c1.957-3.517,4.028-4.522,6.084-4.522c0.939,0,1.715,0.289,2.333,0.854
		c0.612,0.581,0.916,1.242,0.916,1.986c0,0.667-0.218,1.226-0.664,1.695c-0.442,0.46-0.968,0.685-1.589,0.685
		c-0.592,0-1.263-0.294-2.006-0.878c-0.744-0.586-1.292-0.883-1.649-0.883c-1.14,0-2.955,2.235-3.368,3.055v12.132
		c0,1.292,0.155,2.28,0.479,2.94c0.224,0.463,0.618,0.847,1.176,1.153c0.568,0.305,1.375,0.463,2.426,0.463v0.916H67.863v-0.916
		c1.199,0,2.088-0.193,2.664-0.567c0.426-0.271,0.723-0.707,0.902-1.299c0.076-0.297,0.119-1.117,0.119-2.488
		c0-3.375,0.043-8.84-0.066-9.363C71.375,30,71.17,29.618,70.87,29.383c-0.294-0.242-0.674-0.357-1.117-0.357
		c-0.522,0-1.117,0.128-1.792,0.377l-0.248-0.922l6.986-7.447H75.774L75.774,21.034z"/>
	<path fill="#ED1C24" d="M95.022,23.566v15.398c0,2.182,0.241,3.563,0.714,4.147c0.641,0.748,1.477,1.123,2.531,1.123h2.132v0.916
		H86.406v-0.916h1.048c0.681,0,1.309-0.178,1.868-0.515c0.562-0.341,0.952-0.804,1.16-1.382c0.221-0.584,0.324-1.708,0.324-3.374
		V23.566h-4.554v-1.841h4.554v-1.53c0-2.337,0.377-4.322,1.124-5.936c0.753-1.622,1.897-2.932,3.44-3.926
		c1.547-0.995,3.275-1.498,5.206-1.498c1.785,0,4.491,1.018,5.992,2.181c0.988,0.77,1.475,1.633,1.475,2.588
		c0,0.513-0.218,0.992-0.661,1.438c-0.446,0.452-0.919,0.684-1.435,0.684c-0.39,0-0.803-0.139-1.239-0.419
		c-0.433-0.281-0.968-0.889-1.596-1.821c-0.631-0.929-2.261-2-2.793-2.327c-0.525-0.328-1.113-0.483-1.758-0.483
		c-0.787,0-1.451,0.211-2.003,0.635c-0.542,0.41-0.932,1.064-1.173,1.937c-0.238,0.882-0.36,3.14-0.36,6.792v1.686h6.038
		l-1.679,1.825L95.022,23.566L95.022,23.566z"/>
	<path fill="#ED1C24" d="M109.002,21.034v18.83c0,1.463,0.099,2.435,0.317,2.917c0.211,0.496,0.522,0.85,0.942,1.098
		c0.422,0.234,1.189,0.355,2.293,0.355v0.916H101.18v-0.916c1.141,0,1.911-0.111,2.293-0.338c0.394-0.217,0.707-0.587,0.936-1.098
		c0.234-0.507,0.35-1.488,0.347-2.935l-0.016-9.294c0-0.563-0.314-0.936-0.565-1.146c-0.258-0.218-0.602-0.321-1.048-0.321
		c-0.479,0-1.057,0.129-1.735,0.386l-0.36-0.932l6.841-7.522H109.002L109.002,21.034z"/>
	<path fill="#ED1C24" d="M117.156,40.193c0.806,0,1.477,0.274,2.016,0.83c0.552,0.549,0.823,1.223,0.823,2.005
		c0,0.788-0.281,1.451-0.83,2.007c-0.549,0.555-1.22,0.832-2.009,0.832c-0.783,0-1.454-0.277-2.003-0.832
		c-0.552-0.556-0.83-1.219-0.83-2.007c0-0.802,0.278-1.473,0.83-2.022C115.702,40.467,116.373,40.193,117.156,40.193L117.156,40.193
		z"/>
	<path fill="#ED1C24" d="M135.382,21.041v7.972h-0.842c-0.648-2.502-1.478-4.208-2.489-5.113c-1.018-0.899-2.313-1.352-3.876-1.352
		c-1.193,0-2.155,0.311-2.889,0.949c-0.73,0.631-1.101,1.328-1.101,2.095c0,0.953,0.271,1.771,0.813,2.457
		c0.532,0.696,1.606,1.439,3.229,2.22l3.728,1.815c3.46,1.686,5.195,3.917,5.195,6.683c0,2.128-0.807,3.837-2.423,5.146
		c-1.603,1.299-3.411,1.955-5.4,1.955c-1.438,0-3.074-0.254-4.912-0.766c-0.565-0.166-1.021-0.252-1.384-0.252
		c-0.39,0-0.694,0.215-0.922,0.662h-0.836V37.15h0.836c0.479,2.379,1.398,4.177,2.743,5.393c1.342,1.213,2.852,1.814,4.518,1.814
		c1.18,0,2.141-0.336,2.882-1.031c0.744-0.701,1.107-1.524,1.107-2.498c0-1.174-0.41-2.165-1.239-2.961
		c-0.82-0.803-2.473-1.814-4.948-3.051c-2.472-1.223-4.085-2.329-4.852-3.318c-0.771-0.974-1.154-2.198-1.154-3.678
		c0-1.93,0.661-3.546,1.979-4.839c1.319-1.289,3.028-1.94,5.123-1.94c0.925,0,2.045,0.198,3.354,0.588
		c0.869,0.252,1.448,0.387,1.736,0.387c0.281,0,0.485-0.063,0.65-0.189c0.146-0.115,0.324-0.376,0.529-0.786H135.382L135.382,21.041
		z"/>
	<path fill="#ED1C24" d="M143.76,8.79l0.04,19.41c1.415-3.034,3.52-7.166,7.787-7.166c1.322,0,2.469,0.368,3.427,1.102
		c0.955,0.73,1.659,1.884,2.122,3.457c0.327,1.088,0.482,3.083,0.482,5.976v8.296c0,1.476,0.123,2.495,0.364,3.036
		c0.168,0.41,0.456,0.731,0.865,0.979c0.41,0.234,1.16,0.355,2.251,0.355v0.916h-11.504v-0.916h0.535
		c1.09,0,1.851-0.178,2.276-0.505c0.427-0.333,0.724-0.823,0.89-1.464c0.053-0.271,0.076-1.078,0.076-2.401v-8.296
		c0-2.554-0.129-4.234-0.394-5.034c-0.268-0.803-0.688-1.4-1.262-1.797c-3.341-2.311-7.01,4.391-7.956,6.633v8.495
		c0,1.598,0.083,2.593,0.265,2.983c0.179,0.394,0.512,0.728,1.004,0.989c0.479,0.257,1.315,0.398,2.515,0.398v0.916h-11.611v-0.916
		c1.034,0,1.861-0.164,2.45-0.484c0.34-0.176,0.624-0.5,0.823-0.972c0.211-0.48,0.308-1.451,0.308-2.915V18.658
		c0-0.826,0.102-1.566-0.44-1.993c-0.268-0.219-0.618-0.331-1.064-0.331c-0.357,0-0.932,0.129-1.738,0.41l-0.357-0.898l6.669-7.056
		H143.76L143.76,8.79z"/>
	<path fill="#ED1C24" d="M25.89,8.938v12.264h-0.965c-0.321-2.356-0.882-4.23-1.683-5.621c-0.813-1.405-1.973-2.508-3.473-3.322
		c-1.5-0.82-3.044-1.236-4.65-1.236c-1.811,0-3.312,0.559-4.498,1.662c-1.19,1.104-1.775,2.363-1.775,3.778
		c0,1.078,0.374,2.072,1.12,2.954c1.084,1.313,3.652,3.055,7.71,5.233c3.315,1.774,5.583,3.14,6.789,4.093
		c1.212,0.949,2.148,2.07,2.799,3.356c0.654,1.291,0.985,2.64,0.985,4.049c0,2.693-1.048,5.002-3.126,6.947
		c-2.085,1.946-4.766,2.918-8.044,2.918c-1.035,0-1.996-0.076-2.905-0.238c-0.539-0.086-1.662-0.408-3.357-0.948
		c-1.696-0.553-2.773-0.833-3.229-0.833c-0.439,0-0.78,0.136-1.035,0.396c-0.251,0.258-0.439,0.804-0.565,1.623H5.025v-12.16h0.962
		c0.459,2.549,1.071,4.45,1.837,5.718c0.767,1.256,1.937,2.311,3.517,3.147c1.576,0.832,3.305,1.252,5.185,1.252
		c2.178,0,3.904-0.574,5.169-1.725c1.256-1.147,1.894-2.506,1.894-4.079c0-0.873-0.245-1.749-0.714-2.638
		c-0.482-0.895-1.233-1.712-2.241-2.488c-0.677-0.526-2.538-1.629-5.568-3.332c-3.037-1.695-5.186-3.052-6.474-4.062
		c-1.283-1.015-2.245-2.134-2.918-3.352c-0.658-1.223-0.988-2.568-0.988-4.028c0-2.545,0.972-4.732,2.928-6.573
		c1.953-1.834,4.435-2.756,7.453-2.756c1.88,0,3.88,0.453,5.985,1.385c0.978,0.439,1.669,0.651,2.065,0.651
		c0.453,0,0.83-0.136,1.111-0.4c0.287-0.281,0.521-0.823,0.697-1.636H25.89L25.89,8.938z"/>
</g>
</svg>
